<svg id="Capa_1" data-name="Capa 1" xmlns="http://www.w3.org/2000/svg" xmlns:xlink="http://www.w3.org/1999/xlink" viewBox="0 0 401.49 89.9"><defs><style>.cls-1{fill:none;}.cls-2{clip-path:url(#clip-path);}.cls-3{fill:#fcbd1b;}.cls-4{fill:#002e52;}.cls-5{fill:#a0b0c8;}</style><clipPath id="clip-path" transform="translate(-195.25 -261.05)"><rect class="cls-1" width="792" height="612"/></clipPath></defs><title>logo-duoc</title><g class="cls-2"><path class="cls-3" d="M210.1,335.4a28.18,28.18,0,0,0,5.17.29c13.58.1,22.47-7.32,22.47-23.05,0-14.16-8-20.9-20.9-20.9a31.76,31.76,0,0,0-6.74.59Zm-14.85-53.62a119.63,119.63,0,0,1,20-1.46c12.6,0,20.81,2.05,27.06,6.83,6.84,5.08,11.13,13.28,11.13,25,0,12.59-4.59,21.29-10.84,26.66-6.93,5.76-17.58,8.5-30.47,8.5a127.24,127.24,0,0,1-16.9-1Z" transform="translate(-195.25 -261.05)"/><path class="cls-3" d="M304.05,331.3c0,6.25.2,11.33.39,15.33H291.55l-.68-6.74h-.3c-1.85,2.93-6.34,7.82-14.94,7.82-9.77,0-16.8-6.06-16.8-20.81v-28h14.85v25.69c0,6.93,2.24,11.13,7.52,11.13a7.88,7.88,0,0,0,7.42-5.17,8,8,0,0,0,.59-3.23V298.87h14.84Z" transform="translate(-195.25 -261.05)"/><path class="cls-3" d="M334.5,337.06c5.86,0,9.47-5.76,9.47-14.36,0-7-2.73-14.26-9.47-14.26-7,0-9.77,7.23-9.77,14.36,0,8.11,3.42,14.26,9.67,14.26Zm-.29,10.65c-14,0-24.71-9.18-24.71-24.62s10.15-25.29,25.59-25.29c14.55,0,24.31,10.06,24.31,24.51,0,17.39-12.4,25.4-25.1,25.4Z" transform="translate(-195.25 -261.05)"/><path class="cls-3" d="M403.07,345.46c-2.64,1.27-7.62,2.25-13.28,2.25-15.43,0-25.3-9.48-25.3-24.52,0-14,9.58-25.39,27.35-25.39a34.5,34.5,0,0,1,11.33,1.85l-2.34,11a20.39,20.39,0,0,0-8.31-1.46c-7.81,0-12.89,5.56-12.79,13.38,0,8.79,5.86,13.47,13.09,13.47a20.86,20.86,0,0,0,8.49-1.56Z" transform="translate(-195.25 -261.05)"/><path class="cls-4" d="M431.43,286V321.1c0,10.5,4,15.84,11,15.84,7.24,0,11.23-5.07,11.23-15.84V286h13.75V320.2C467.45,339,458,348,442,348c-15.38,0-24.43-8.5-24.43-28V286Z" transform="translate(-195.25 -261.05)"/><path class="cls-4" d="M522,345.27c-2.53,1.27-8.23,2.71-15.65,2.71-21.09,0-31.95-13.21-31.95-30.59,0-20.81,14.84-32.4,33.3-32.4,7.15,0,12.58,1.45,15,2.72l-2.81,11a29.67,29.67,0,0,0-11.58-2.26c-10.95,0-19.46,6.6-19.46,20.18,0,12.22,7.24,19.91,19.55,19.91a34.59,34.59,0,0,0,11.49-2Z" transform="translate(-195.25 -261.05)"/><path class="cls-5" d="M537.62,339.9a34,34,0,0,0,50.19,0h-.76l-.66.69a33.47,33.47,0,0,1-47.35,0l-.67-.69Zm3,0,.06.07c.07.06.11.09.14,0l0-.11h-.16Zm7,0c0,.08,0,.17,0,.31l-.63,1.15-.53.95a12,12,0,0,1-.67,1.14c-.1.14-.2.25-.32.21a.81.81,0,0,1-.21-.09c-.06,0-.09,0-.1,0s0,.08.07.11l.7.36c.27.15.72.49,1.12.71a2.75,2.75,0,0,0,2.16.36,2.39,2.39,0,0,0,1.43-1.17,2.26,2.26,0,0,0,.24-1.68c-.25-.94-1.16-1.44-1.83-1.82l-.84-.45-.17-.09Zm4.32,0a25.38,25.38,0,0,0,21.46,0h-1.28a24.65,24.65,0,0,1-8,1.81,1.17,1.17,0,0,1-1.19-1.13v-.68h-.56v.68a1.17,1.17,0,0,1-1.19,1.13,24.77,24.77,0,0,1-8-1.81Zm25.12,0-1.13.63c-.15.09-.51.26-.79.42-.08.05-.11.08-.09.11h.12a1,1,0,0,1,.22-.1c.2-.06.28,0,.4.18s.19.32.65,1.15l.53.94c.27.51.51.94.61,1.18s.1.3,0,.38a.62.62,0,0,1-.19.13c-.06,0-.07.06-.06.09s.07,0,.14,0c.22-.12.55-.33.67-.4.33-.18.7-.34,1.52-.8.21-.11.25-.14.21-.3a5.64,5.64,0,0,0-.25-.64l-.1-.08s0,.06,0,.13a.5.5,0,0,1,0,.53,1.71,1.71,0,0,1-.47.34c-.55.31-.69.28-.9-.09-.1-.16-.37-.65-.47-.84l-.24-.43v-.07l.78-.41c.22-.09.34-.05.42,0s.1.14.14.19l.07,0v-.13s-.13-.26-.18-.38c-.13-.28-.15-.39-.18-.42l-.06,0s0,.05,0,.12-.09.14-.22.22-.74.43-.86.5l-.07,0-.76-1.37v-.07a8.42,8.42,0,0,1,.78-.41c.29-.12.38-.08.47,0a.68.68,0,0,1,.14.18l.09.05,0-.09-.18-.38,0-.05Zm-27.28,3.78a2,2,0,0,1-1.19,1.11,2,2,0,0,1-1.46-.3c-.43-.25-.58-.48-.59-.62a1.6,1.6,0,0,1,.16-.44c0-.11.28-.53.6-1.1l.38-.69c.23-.42.5-.9.61-1.07a.09.09,0,0,1,.12-.07,1.58,1.58,0,0,1,.37.15,2.49,2.49,0,0,1,1.24,1.4,2,2,0,0,1-.24,1.63m5.19-.75-.26,0-1.47-.51c-.17-.05-.53-.19-.84-.3-.08,0-.13,0-.15,0s0,.06.09.08l.22.09c.18.11.19.22.14.43s-.11.35-.42,1.24l-.35,1c-.19.54-.35,1-.46,1.24s-.16.28-.28.27l-.22-.05c-.07,0-.1,0-.11,0s0,.07.09.1l.75.24c.34.11.73.28,1.61.59.22.08.28.09.37,0a5.22,5.22,0,0,0,.29-.63v-.12l-.1.07c-.13.22-.24.32-.41.34a1.75,1.75,0,0,1-.57-.12c-.6-.2-.67-.33-.54-.73.05-.18.25-.71.31-.91l.16-.46.06-.05c.14.05.72.25.82.3s.26.22.25.35,0,.15,0,.21l0,.07.09-.09s.1-.27.16-.39c.12-.28.18-.37.19-.4l0-.07-.12.05a.44.44,0,0,1-.32,0l-.94-.31,0-.08.52-1.48.06-.05.82.31c.28.14.32.23.32.35a.43.43,0,0,1,0,.22l0,.1.07,0c0-.07.14-.32.17-.37.11-.27.17-.33.18-.37v-.07Zm7,1.18c-.18,0-.38-.11-.61-.17a7.5,7.5,0,0,0-.89-.13,2.72,2.72,0,0,0-2,.48,2.48,2.48,0,0,0-.26,3.52,3.16,3.16,0,0,0,2.06.86,3.62,3.62,0,0,0,1.12-.05.24.24,0,0,0,.18-.17,4.84,4.84,0,0,0,.2-.8l0-.1s-.06,0-.1.11a.92.92,0,0,1-.24.39,1.38,1.38,0,0,1-1.16.25,2.09,2.09,0,0,1-1.75-2.37,2,2,0,0,1,.71-1.54,1.6,1.6,0,0,1,1.19-.29,1.88,1.88,0,0,1,1.22.49.85.85,0,0,1,.19.59c0,.09,0,.14,0,.15s.07-.05.09-.14,0-.46.08-.66,0-.29.06-.34,0-.07-.09-.08m6.61,3.93h-.31c-.19,0-.25-.14-.29-.31s-.12-.75-.19-1.31l-.13-1.09c-.11-.92-.14-1.1-.15-1.3s0-.33.19-.37a.41.41,0,0,1,.17,0c.07,0,.11,0,.11-.07s-.06-.05-.14-.05l-.77.12c-.17,0-.56.05-.89.1q-.13,0-.12.06s0,0,.11,0h.24c.21,0,.27.11.31.32s.06.37.17,1.3l0,.13,0,.05-2.35.29,0,0v-.13a11.42,11.42,0,0,1-.14-1.31c0-.21,0-.32.18-.37a1.21,1.21,0,0,1,.18-.05c.07,0,.1,0,.1-.07s0,0-.14,0L564,344c-.16,0-.55.05-.88.1-.09,0-.13,0-.12.07s0,0,.11,0h.24c.21,0,.27.11.31.32s.06.37.17,1.31l.13,1.08c.07.56.13,1.05.13,1.31s0,.32-.13.36a1,1,0,0,1-.22.05c-.07,0-.1,0-.1.06s.06.06.14.05l.77-.11c.17,0,.56-.06,1-.1.07,0,.12,0,.11-.09s0,0-.09,0a1.76,1.76,0,0,1-.32,0c-.2,0-.24-.13-.29-.3s-.11-.74-.19-1.31l-.06-.54,0,0L567,346l0,0,.06.55c.07.56.13,1.05.14,1.31s0,.32-.14.36a1,1,0,0,1-.22.05c-.08,0-.1,0-.1.06s.06.06.14.05l.77-.12,1-.09c.07,0,.13,0,.12-.09s0,0-.11,0m3.46-1-.31.06c-.19,0-.26-.08-.32-.23s-.23-.72-.4-1.3l-.3-1.05c-.26-.9-.3-1.06-.35-1.26s0-.32.12-.4a.67.67,0,0,1,.18-.07l.08-.09s-.07,0-.15,0-.56.17-.71.22l-.78.2c-.1,0-.14.05-.13.09l.11,0a.85.85,0,0,1,.22,0c.14,0,.23.08.3.28s.12.35.37,1.26l.3,1a11.72,11.72,0,0,1,.34,1.31c0,.17,0,.28-.08.34l-.21.09c-.08,0-.09,0-.08.07s.06.05.14,0,.6-.19.74-.23l.93-.24c.07,0,.11-.05.1-.1s0,0-.11,0m4-2.25c0-.07,0-.1-.09-.08l0,.11a.9.9,0,0,1,0,.4c-.09.21-.31.3-.62.42s-.62.19-.75.15-.31-.46-.6-1.21l-.39-1c-.34-.87-.4-1-.46-1.23s-.06-.32.09-.41a.88.88,0,0,1,.22-.1c.07,0,.1-.06.08-.1s0,0-.14,0-.64.26-.78.32l-.8.28c-.08,0-.12.06-.1.1s0,0,.11,0l.2-.06c.21,0,.29,0,.38.24s.14.34.48,1.22l.39,1a10.31,10.31,0,0,1,.44,1.24c0,.17.06.31,0,.38a.73.73,0,0,1-.2.1c-.07,0-.09.06-.08.08s.06,0,.14,0c.23-.08.59-.25.72-.3.47-.18.87-.29,1.7-.61.3-.12.32-.16.3-.29a4.37,4.37,0,0,0-.16-.7" transform="translate(-195.25 -261.05)"/><path class="cls-5" d="M530.83,328.85a33.93,33.93,0,0,0,6.79,11h.75a33.44,33.44,0,0,1-7-11Zm3.31,0-.51,1.12c-.06.13-.12.21-.09.28s.11,0,.22,0l3.42-1.32.2-.07h-1.27l-1.44.62v0l.29-.6Zm3.85,0a.71.71,0,0,1,.11.21l.09.07s0-.07,0-.14l-.06-.14Zm2.34,0a25.5,25.5,0,0,0,11.65,11h1.27a24.9,24.9,0,0,1-12.33-11.06Zm6.3,0V329h-.06a.2.2,0,0,0-.11.06v0a.42.42,0,0,0,0,.11c0,.21-.11.95-.38,3.56v0a.85.85,0,0,0,.37.63,1.35,1.35,0,0,0,.77.26h0a1.23,1.23,0,0,0,.74-.26.88.88,0,0,0,.37-.63v0c-.09-.92-.14-1.37-.17-1.6a1,1,0,0,0,0-.23v0h0c0-.08,0-.41-.19-1.79V329h-.15v-.14h-.27V329h-.61v-.14Zm5,0,0,0h0l.27.45.27.52a1.88,1.88,0,0,0,.58.73,1.85,1.85,0,0,0,.49.3,2.39,2.39,0,0,0-.39.39,2,2,0,0,0-.32.62h0l-.06.56v0l.13.6h0v0a2,2,0,0,0,.42.58h0a3.83,3.83,0,0,0,.44.33l-.32.27h0a1.15,1.15,0,0,0-.26.61,1.05,1.05,0,0,0,0,.24,1.67,1.67,0,0,0,.07.42,1.73,1.73,0,0,0,.28.54,2.05,2.05,0,0,0,.19.22h0l.2.14h0l.1,0-.1.1a.54.54,0,0,0-.13.37v.06a.61.61,0,0,0,.11.36.58.58,0,0,0,.36.24h0l.28.1.05.08,0,.06h0l0,.39h.13l.13,0,0,.05-.1-.09-.13,0a.68.68,0,0,0,.08.18.38.38,0,0,0,.32.2.41.41,0,0,0,.36-.22.58.58,0,0,0,.06-.2v-.52a1,1,0,0,0,.47-.26.81.81,0,0,0,.31-.58v0a.66.66,0,0,0-.18-.47,1.73,1.73,0,0,0,.66-1.29V335a1.13,1.13,0,0,0-.15-.59,1,1,0,0,0-.43-.47h-.05a1.58,1.58,0,0,0,.27-.16h0a1.71,1.71,0,0,0,.53-.54,1.65,1.65,0,0,0,.2-.79v-.17a1.42,1.42,0,0,0,0-.34,1.49,1.49,0,0,0-.57-.94l.09,0h0l.46-.41h0l.41-.53v0l.25-.44.1-.2a1.42,1.42,0,0,1,.16-.25h0a1.58,1.58,0,0,1,.1-.16s0,0,0,0h-.35l0,0h0l-.19.28a1.2,1.2,0,0,1-.1.19c-.09.17-.15.28-.23.45l-.38.49-.44.38-.2.13-.43-.24-.07,0v-.26l.11,0h0l.52-.42.36-.57h0a2.42,2.42,0,0,1,.18-.36h-.32c0,.07-.07.15-.12.25h0l-.32.5-.42.35,0-1.1h-.27l0,1.24v.3h0l-.21-.11-.59-.25,0-1.17h-.28l0,1,0,0a1.05,1.05,0,0,0-.11-.07l-.3-.19a1,1,0,0,1-.2-.14c-.35-.48-.36-.47-.47-.64h-.33c.23.35.15.21.58.8a1.14,1.14,0,0,0,.16.14c.1.07.22.13.32.19l.13.09,0,0h0l.2.09.14.06.14.06.46.19.32.18.14.07.14.08.06,0,.46.25,0,0a1.18,1.18,0,0,1,.51.8,1,1,0,0,1,0,.28v.15a1.47,1.47,0,0,1-.16.67,1.21,1.21,0,0,1-.45.45,1.51,1.51,0,0,1-.45.24l-.13-.06h0l-.14-.08-.13-.07-.15-.08.15-.06.14-.07s0,0,0,0a.67.67,0,0,0,.12-.06,1.71,1.71,0,0,0,.39-.37.63.63,0,0,0,.2-.44v-.08a1.09,1.09,0,0,0-.28-.65h0a.9.9,0,0,0-.26-.22l-.1-.06h0l0,0-.14-.08-.33-.17-.4-.16h0l-.08,0-.06,0-.14,0-.54-.19h0l0,0h0a1.76,1.76,0,0,1-.57-.31,1.54,1.54,0,0,1-.5-.65h0l-.28-.52-.22-.36Zm10.75,0v11H563v-11Zm2.16,0,.06,0a2.37,2.37,0,0,0,1.44.45,2.41,2.41,0,0,0,1.46-.45l.06,0h-.5a2.28,2.28,0,0,1-1,.23,2.2,2.2,0,0,1-1-.23Zm3.67,0-2.49,3.82,0,.12,0,0a1,1,0,0,1,.24.66v.13a1.1,1.1,0,0,1-.13.51l.09.2,3.9.7a1,1,0,0,0,.93.69h.08a1,1,0,0,0,.84-.41l1.5.33.09,1.54h0a.42.42,0,0,0,.41.42.43.43,0,0,0,.43-.41h0l.09-1.32,1.81.45.14-.24h0l3.7-5.25,0-.19a.7.7,0,0,1-.26-.36,1.06,1.06,0,0,1-.08-.43.66.66,0,0,1,.05-.28l.06-.08-.13-.22-.58,0a5,5,0,0,1-.88-.09,6.36,6.36,0,0,1-1.18-.35h-.62a3.14,3.14,0,0,0,.52.26,9.27,9.27,0,0,0,1.23.37,5.3,5.3,0,0,0,.93.09h.31l-1.83,2.59-1.66,2.35-.17,0h0a2.7,2.7,0,0,1-.54.06h0a2.22,2.22,0,0,1-.64-.1l.4-5.65h-.28l-.4,5.56v.29l0,.83,0,.14v.14l-.09,1.36a.15.15,0,0,1-.15.15.15.15,0,0,1-.14-.15h0l-.09-1.47v-.29l-.07-1v-.32l-.23-3.59,0-.49-.08-1.17h-.28l.1,1.59L570.73,334a1.84,1.84,0,0,0-.51-.49,1.69,1.69,0,0,0-1-.32h0l-1.14.06h-.33a4,4,0,0,1-.48-.05l-.14,0-.27-.09-.21-.09-.06,0-.46-.2h0l2.51-3.84Zm11.56,0,.06,0a2.56,2.56,0,0,0,2.9,0l.07,0h-.51a2.33,2.33,0,0,1-2,0Zm4.68,0a24.68,24.68,0,0,1-4.64,6,25.08,25.08,0,0,1-7.7,5h1.28a25.49,25.49,0,0,0,11.66-11.06Zm2.45,0-.19.39c0,.07,0,.12,0,.14s.06,0,.08-.07A2.49,2.49,0,0,1,587,329c.1-.16.22-.16.38-.1s.7.28,1.25.53l1,.44c.86.38,1,.45,1.2.55s.27.18.23.34a1.25,1.25,0,0,1-.06.18l0,.12s.06,0,.1-.1.22-.56.29-.7.25-.51.34-.72,0-.14,0-.16l-.09.07a2,2,0,0,1-.12.19c-.08.11-.2.12-.4.05s-.34-.14-1.2-.52l-.8-.35Zm7,0a33.44,33.44,0,0,1-7,11h.76a34.1,34.1,0,0,0,6.79-11Zm-53.22,11a.89.89,0,0,1-.14-.18c-.11-.17-.07-.28.07-.44s.26-.26.93-.91l.79-.76c.41-.4.76-.74,1-.9s.27-.17.37-.1a.89.89,0,0,1,.18.14l.1,0,0-.12c-.18-.18-.46-.45-.56-.56l-.66-.7-.11,0,0,.11a1.22,1.22,0,0,1,.2.25c.11.14,0,.26-.06.4s-.53.55-.94.94l-1.78,1.72-.12.05a1.15,1.15,0,0,1-.19-.16.92.92,0,0,1-.25-.61,1.17,1.17,0,0,1,.41-.91,1,1,0,0,1,1.31-.11c.1.09.14.11.17.08V337l-.08-.1a1.46,1.46,0,0,0-2.14-.05,1.06,1.06,0,0,0-.31.73,1.52,1.52,0,0,0,.54,1.08c.2.2.47.45.64.63l.54.59Zm7.26,0c-.17-.1-.4-.24-.61-.35s-.12-.05-.14,0l.06.1.21.13a.41.41,0,0,1,.1.14Zm29.75,0c-.09-.22-.1-.29-.12-.32l-.06,0-.07.07-.22.15-.22.13ZM540,331.79a2.44,2.44,0,0,0-3.53-.76,2.23,2.23,0,0,0-.58,3.35,2.39,2.39,0,0,0,3.43.83,2.36,2.36,0,0,0,.68-3.42m-1.31,2.8c-1.29.84-2.06.38-2.45-.22-.56-.85-.27-2,.9-2.74,1.5-1,2.22-.25,2.45.11a2,2,0,0,1-.9,2.85m49.75-3.35a2.28,2.28,0,0,0-2-.35,3,3,0,0,0-1.72,1.41,3.43,3.43,0,0,0-.49,1,.22.22,0,0,0,.06.23,5.34,5.34,0,0,0,.62.56h.11s0-.07-.06-.13a1.11,1.11,0,0,1-.23-.4,1.34,1.34,0,0,1,.33-1.15,2.31,2.31,0,0,1,3.94.92,1.64,1.64,0,0,1-.31,1.19,1.89,1.89,0,0,1-1,.84.87.87,0,0,1-.62-.11c-.07,0-.12-.06-.15,0s0,.09.08.14.39.26.56.39.22.18.26.2l.12,0c.11-.14.27-.27.42-.46a5,5,0,0,0,.54-.71,2.65,2.65,0,0,0,.51-2,2.28,2.28,0,0,0-1-1.52M584,334.71c-.14-.3-.21-.53,0-.76l.13-.15,0-.09-.13,0c-.23.23-.45.49-.5.54s-.33.32-.47.46l0,.12.11,0,.06-.07c.14-.14.23-.12.31,0a1.08,1.08,0,0,1,.21.32l.4.86V336l-1,1H583l-1.28-.55a.1.1,0,0,1-.06-.15v-.09s-.08,0-.16.09c-.36.35-.67.68-.82.84s-.19.21-.16.25l.1,0,.19-.17c.11-.06.3-.14.87.08.95.37,3.46,1.41,3.8,1.54.15.05.22.07.25,0s0-.12-.06-.3Zm.91,3.11-1.49-.66v-.05l.79-.82h.05l.69,1.47,0,.06Zm-12-6.9.19,3a1.87,1.87,0,0,0-1.05-.33l-.3,0a2.13,2.13,0,0,0-.59.16ZM571.67,335l-.15.07a.68.68,0,0,1-.65.37h-.07a.76.76,0,0,1-.71-.57l-.11-.11-3.79-.69a1.56,1.56,0,0,0,.09-.44v-.15a1.07,1.07,0,0,0-.07-.44l.21.09s.32.15.57.23l.18.05a3.14,3.14,0,0,0,.43,0l.42,0h0l1.14-.07a1.51,1.51,0,0,1,.88.28,1.49,1.49,0,0,1,.56.61l.21,0a1.5,1.5,0,0,1,.95-.44,1.14,1.14,0,0,1,.26,0,1.67,1.67,0,0,1,1,.34h0l.09,0,.07,1.07Zm2.59.58.06-.8a2.75,2.75,0,0,0,.67.09,4.22,4.22,0,0,0,.59-.06h0a3.49,3.49,0,0,0-.08.5v.15s0,0,0,0l0,.1v0a1.34,1.34,0,0,0,.13.32Zm5-5.58a1.23,1.23,0,0,0,.1.35,1.07,1.07,0,0,0,.24.4L576,335.84v0c0-.07-.08-.17-.12-.25s0-.14,0-.19v-.09h0a3.21,3.21,0,0,1,.07-.43,1.81,1.81,0,0,1,.06-.2l.23-.33,3.07-4.36h0m-31.14.84Zm-.23.12Zm-.19-1.71c.09.83.14,1.25.16,1.47a1,1,0,0,0,0,.23h0c0,.06,0,.37.19,1.8v0a.68.68,0,0,1-.27.42,1.09,1.09,0,0,1-.59.19,1.17,1.17,0,0,1-.62-.19.63.63,0,0,1-.26-.42v0c.18-1.81.28-2.73.33-3.19,0-.16,0-.26,0-.33Zm6.4,8.13h0a.31.31,0,0,1-.2-.13.31.31,0,0,1-.07-.2V337a.31.31,0,0,1,.07-.2.56.56,0,0,1,.21-.16l.28.08v.07l0,.7Zm.87.87h0l0,.1a.1.1,0,0,1-.1.05l-.09-.07,0-.06v0h0v-.42l0-1,.16.06a1.2,1.2,0,0,0,.2.06h0Zm.8-1.35h0c0,.17-.07.24-.23.39a.59.59,0,0,1-.25.16v-.2h0c0-.14,0-.19,0-.34h0a.08.08,0,0,0,0,0,.19.19,0,0,0-.06-.13l-.07,0a.31.31,0,0,0-.12-.05h0l-.09,0-.29-.11-.13,0-.1,0,0,0-.56-.18-.16-.12,0-.05-.11-.13a1.2,1.2,0,0,1-.23-.45,1.18,1.18,0,0,1,0-.53,1,1,0,0,1,.21-.47l.38-.32.27.11.23.09.05,0,0,0,.07,0a.55.55,0,0,0-.14.09l-.15.12a.69.69,0,0,0-.25.4.85.85,0,0,0,0,.23.61.61,0,0,0,.28.51,1,1,0,0,0,.2.11l0,0,.09.05.14.07.15.06h.05l.21.11.13.06h0l.08,0h0l.15.08.1.05h0a.4.4,0,0,1,.2.36Zm-1.43-1.32,0,0a.25.25,0,0,1-.12-.13.31.31,0,0,1,0-.15.47.47,0,0,1,0-.16.55.55,0,0,1,.14-.26Zm.24-.91.19-.09.32.15,0,.87-.3.21-.14-.07Zm1.56-.16a.89.89,0,0,1,.11.46v.14a1.43,1.43,0,0,1-.62,1.12l-.29-.15h0l0,0-.09,0-.09,0,0,0h0l.13-.1.14-.09.17-.12v0h0a.61.61,0,0,0,.2-.46v-.08h0a.79.79,0,0,0-.23-.4l-.11-.1-.09-.07h0l0,0-.14-.06-.41-.2h0l-.11,0-.1,0h0l-.14-.06L554,334l-.2-.08-.06-.05a.72.72,0,0,1-.17-.1,1.83,1.83,0,0,1-.26-.21,1.45,1.45,0,0,1-.35-.47l-.12-.56.06-.52h0a2,2,0,0,1,.28-.51,1.61,1.61,0,0,1,.5-.44h0l.52.17h0c0,.12,0,.26,0,.35h0c-.08.06-.13.14-.18.18a1.27,1.27,0,0,0-.33.48,1.25,1.25,0,0,0,0,.3v.12a.71.71,0,0,0,.22.38,1.29,1.29,0,0,0,.39.31l.07.05,0,0s0,0,0,0a.71.71,0,0,0,.14.1l.16.11h0l.38.2.14.07h0l.12.05.15.07.26.12a.74.74,0,0,1,.34.36m-.8.88,0-.43a.3.3,0,0,1,.07.14v.05a.32.32,0,0,1-.09.24m-1.12-3.48,0,1.05a.75.75,0,0,1-.17-.14c-.1-.12-.14-.16-.16-.26v-.07a.63.63,0,0,1,0-.21.81.81,0,0,1,.26-.37m.26-.63.27.12.44.22,0,1.45c-.12.06-.26.11-.46.19l-.14-.11-.06-1.51v-.36m.95,1.59,0-1.06.07.06a.83.83,0,0,1,.2.51v0c0,.09,0,.15-.14.28a.87.87,0,0,1-.16.17" transform="translate(-195.25 -261.05)"/><path class="cls-5" d="M529.28,323.32a35,35,0,0,0,1.55,5.53h.59a32,32,0,0,1-1.57-5.52Zm2.18,0,0,.16c0,.21.06.44.08.62a2.07,2.07,0,0,1,0,.28s0,0,.13.05.62,0,.72,0,.1,0,.09-.08l-.09-.05a.7.7,0,0,1-.23-.06c-.15-.07-.2-.22-.28-.57l-.07-.36Zm6.71,0a25.64,25.64,0,0,0,2.16,5.52h.59a24.43,24.43,0,0,1-2.22-5.52Zm2.8,0,.86.49v.09a3.47,3.47,0,0,0,.06.64h0a3.61,3.61,0,0,0,.22.68,1.75,1.75,0,0,0,.13.28,2.47,2.47,0,0,0,.31.46,3.42,3.42,0,0,0,.36.4h0c.15.13.24.19.38.3h0a3.54,3.54,0,0,0,.44.32,4.45,4.45,0,0,0,.55.33l.48.22.48.16.47.14.37.1h0l.34.14a.45.45,0,0,1,.21.32v.37a.39.39,0,0,1,0,.09h.28v0h0v-.4a.68.68,0,0,0-.36-.56h0l-.37-.16h0l-.38-.11-.46-.13-.46-.16-.45-.2c-.22-.12-.33-.19-.53-.32s-.26-.18-.42-.3a4,4,0,0,1-.37-.3,2.28,2.28,0,0,1-.33-.36,2.16,2.16,0,0,1-.29-.43,1.75,1.75,0,0,1-.11-.24,2.5,2.5,0,0,1-.2-.64h0a3.35,3.35,0,0,1-.07-.53v-.06c0-.1,0-.18,0-.25s0-.21,0-.33h-.28l0,.19-.32-.19Zm2.72,0a2.2,2.2,0,0,0-.07.58v.16a3.44,3.44,0,0,0,0,.46,1.67,1.67,0,0,0,.14.39.36.36,0,0,0,0,.09c.11.21.17.34.22.45a3.72,3.72,0,0,0,.24.35,3,3,0,0,0,.65.58,5.6,5.6,0,0,0,.48.3h0l.8.3.68.29h0l.22.08.21.16a.61.61,0,0,1,.17.42v.91h.27v-.92h0a.87.87,0,0,0-.28-.63l-.2-.16v-.48a1.34,1.34,0,0,0,.4.07,1.51,1.51,0,0,0,.63-.16,1.35,1.35,0,0,0,.76-.86l2.19-1.19a3.94,3.94,0,0,0-.12.93h-.49v1H554l.07,2.36h.28l-.07-2.36h1l-.07,2.36h.27l.08-2.36h3.18v-1h-.41a4.31,4.31,0,0,0-.28-1.41.69.69,0,0,0,.08-.28h.06a.59.59,0,0,0,.57-.42h-.32a.34.34,0,0,1-.25.14h-1.2v.27h.86a.32.32,0,0,1-.32.3h-1.11v.28h1.11a.62.62,0,0,0,.3-.09,4.39,4.39,0,0,1,.22,1.22h-6.67a3.92,3.92,0,0,1,.21-1.2.59.59,0,0,0,.26.07H553V324h-1.11a.33.33,0,0,1-.22-.08v0l0-.05a.3.3,0,0,1,0-.15h.85v-.27h-1.19a.29.29,0,0,1-.25-.14h-.32a.59.59,0,0,0,.57.42h.06a.15.15,0,0,0,0,.07v0a.08.08,0,0,0,0,0,.49.49,0,0,0,.08.18l0,.08L549,325.45a1.82,1.82,0,0,0-.43-.11,1.49,1.49,0,0,0,.44-1v0l1.53-1H550l-1.27.87,0,0-.26,0h-.1a1.39,1.39,0,0,0,.34-.87h-.28a1.14,1.14,0,0,1-.48.89,1,1,0,0,1-.61.26.92.92,0,0,1,0-.16,1,1,0,0,1,.21-.59,1,1,0,0,1,.21-.24.72.72,0,0,1,.15-.11l.09,0h-.55l-.13,0v0H547v0l-.13,0h-.51a1.26,1.26,0,0,1,.28.19,1.75,1.75,0,0,1,.16.2,1,1,0,0,1,.21.59c0,.05,0,.1,0,.16a1,1,0,0,1-.62-.26,1.15,1.15,0,0,1-.47-.89h-.28a1.32,1.32,0,0,0,.34.87h-.1a1.47,1.47,0,0,0-.36,0l0,0-1.26-.87Zm9.21.27h.28v-.27h-.28Zm3.43,0h.28v-.27h-.28Zm6.1-.27v5.52H563v-5.52Zm3.36,0-1.73,4.11H564v.14a1.64,1.64,0,0,0,.6,1.28h.5a1.28,1.28,0,0,1-.28-.16,1.34,1.34,0,0,1-.53-1h3.64a1.38,1.38,0,0,1-.54,1,2.61,2.61,0,0,1-.28.17h.51a1.59,1.59,0,0,0,.59-1.27v0h0v-.1h0l-1.76-4.11h-.62Zm6.61,0,.3,4.58c-.22,0-.41,0-.63,0H572a6.65,6.65,0,0,1-1.29-.12,3.62,3.62,0,0,1-1.23-.52l-.19,0-1,1.5h.33l.81-1.23a3.91,3.91,0,0,0,1.19.48,6.91,6.91,0,0,0,1.34.13h.14c.26,0,.46-.05.65-.05l0,.67H573l0-.63v-.29l-.3-4.6Zm2.45,0-.36,5.16,0,.17v.19h.28l0-.2.09,0a4.07,4.07,0,0,1,.63,0,1.15,1.15,0,0,1,.61.17l.15.09h.59a4.21,4.21,0,0,1-.6-.31,1.39,1.39,0,0,0-.75-.22,4.37,4.37,0,0,0-.62,0h-.08l.36-5Zm6.18,0-1.73,4.11h-.08v.14a1.64,1.64,0,0,0,.6,1.28h.5a1.2,1.2,0,0,1-.27-.16,1.38,1.38,0,0,1-.54-1h3.65a1.42,1.42,0,0,1-.54,1,2.61,2.61,0,0,1-.28.17h.51a1.59,1.59,0,0,0,.59-1.27v-.14h-.08l-1.72-4.11H581Zm5.69,0a24.7,24.7,0,0,1-2.22,5.53h.6a25.64,25.64,0,0,0,2.16-5.52Zm4,0a3,3,0,0,0,.8.23,2.33,2.33,0,0,0,1.46-.23Zm4.9,0a33.37,33.37,0,0,1-1.58,5.53h.6a34.92,34.92,0,0,0,1.55-5.52ZM535,328.84c.18-.37.41-.86.61-1.34.35-.84.8-1.87,1-2.37,0-.09.08-.19.05-.25s-.08-.06-.2,0l-3.66,1.4c-.32.13-.46.13-.57,0a.44.44,0,0,1-.08-.17c0-.07-.06-.09-.1-.08s0,.08,0,.16c.11.28.21.49.23.55s.15.4.27.71c0,.08.07.14.11.12s0,0,0-.11a1.08,1.08,0,0,1-.09-.32c0-.16.09-.25.43-.4l2.56-1.1v0c0,.13-.56,1.24-.8,1.79s-.42,1-.61,1.4Zm2.43,0c.36-.12.5-.14.59,0l0,0h.14l-.21-.48c0-.1-.12-.34-.27-.71,0-.08-.06-.12-.11-.11s0,0,0,.12a.65.65,0,0,1,.08.31c0,.13-.11.27-.55.46l-1,.41Zm14.62,0,0-.09h0a.94.94,0,0,0-.7-.55l-.24,0a1,1,0,0,0-.45.13.68.68,0,0,1-.19,0h-.1a.7.7,0,0,1-.42-.16h0l-.32-.3,0-.08a1,1,0,0,1,.65-.46,1.63,1.63,0,0,1,.36-.05.87.87,0,0,1,.35.07h0l.59.25h0c.16.09.42.29.57.4a2.21,2.21,0,0,1,.2.21l.09.11,0,0h0l.33.51H553l-.43-.66-.05-.06a1.45,1.45,0,0,0-.17-.19,1,1,0,0,0-.18-.18,6.44,6.44,0,0,0-.61-.42h0l-.6-.24h0a1.2,1.2,0,0,0-.45-.09,1.72,1.72,0,0,0-.44.06,1.3,1.3,0,0,0-.79.56l0,0-.43.12h-.34l.33.25H549l.37.08h0l.3.28h0a1,1,0,0,0,.56.2h.13a.9.9,0,0,0,.28,0h0a.62.62,0,0,1,.32-.1.55.55,0,0,1,.18,0,.65.65,0,0,1,.49.37Zm4.7,0h0a2.4,2.4,0,0,1,.38-.56,2.13,2.13,0,0,1,.48-.42,3.19,3.19,0,0,1,.58-.3,3.62,3.62,0,0,1,.53-.17h0a1.18,1.18,0,0,1,.35-.05h.14a1.06,1.06,0,0,1,.52.16h0l.37.24v.15l-.34.22-.33.18a1.92,1.92,0,0,1-.3,0l-.23,0a.64.64,0,0,1-.16-.06.62.62,0,0,0-.26-.06h0a.73.73,0,0,0-.58.33l-.17.2a1,1,0,0,0-.11.15h.35a1.07,1.07,0,0,0,.15-.18.46.46,0,0,1,.39-.21h0l.14.05a.77.77,0,0,0,.24.07l.27,0a1.37,1.37,0,0,0,.39-.06h0l.35-.19.37-.25.39-.08h.15l.21-.15.14-.11h-.34l-.38-.2-.06,0,0,0h0l-.48-.31h0a1.39,1.39,0,0,0-.63-.21H559a1.6,1.6,0,0,0-.42.07h0a3.47,3.47,0,0,0-.57.19,4,4,0,0,0-.62.31h0a2.77,2.77,0,0,0-.54.48,2.66,2.66,0,0,0-.41.6l-.09.15Zm32.45,0-.2-.08c-.55-.25-1-.45-1.22-.58s-.24-.18-.21-.29a.9.9,0,0,1,.07-.22c0-.07,0-.09,0-.11s-.08,0-.11.09c-.1.22-.25.59-.3.71s-.13.27-.23.48Zm4-3.41s-.06,0-.08.09a1,1,0,0,1-.09.18c-.1.18-.22.2-.41.14s-.37-.11-1.25-.42l-1-.35c-.54-.19-1-.35-1.24-.46s-.28-.16-.27-.28a1.5,1.5,0,0,1,.06-.22c0-.07,0-.1,0-.11s-.07,0-.09.09c-.09.24-.2.62-.25.75-.16.47-.32.85-.62,1.69-.1.31-.08.35,0,.43a4.72,4.72,0,0,0,.64.32c.07,0,.1,0,.12,0l-.07-.09a.72.72,0,0,1-.3-.27.9.9,0,0,1,.07-.74c.16-.46.25-.6.37-.67s.55.06,1.31.31l1,.36,1.24.43c.2.08.28.17.26.33s-.05.18-.07.24,0,.11,0,.13.07,0,.1-.11c.08-.23.21-.66.26-.8s.2-.52.29-.8c0-.09,0-.13,0-.15m-11.72-1.8,1.59,3.8h-1.59Zm-15.51,0v3.8h-1.6Zm.28,0,1.63,3.8h-1.63Zm15,0v3.78H579.6Zm-32.66.81h.18a1.11,1.11,0,0,1-.57.84,1.09,1.09,0,0,1-.64.24h-.09a1,1,0,0,1,.3-.7,1.07,1.07,0,0,1,.82-.38m-1.11.29-.1.15v-.14h.1m-1.09,2-.78-.3h0a2.24,2.24,0,0,1-.45-.27,3,3,0,0,1-.59-.53,1.41,1.41,0,0,1-.21-.31.91.91,0,0,1-.08-.17l1,.55,0,0a1.34,1.34,0,0,0,.77.89,1.54,1.54,0,0,0,.63.16,1.75,1.75,0,0,0,.44-.07V327h0Zm-.1-1.42a1.12,1.12,0,0,1-.56-.84h.18a1.07,1.07,0,0,1,.82.38,1,1,0,0,1,.3.7h-.09a1.13,1.13,0,0,1-.65-.24m.76,1.06a1,1,0,0,1-.89-.06,1,1,0,0,1-.59-.64,1.2,1.2,0,0,1,.36-.05,1.08,1.08,0,0,1,.54.15,1,1,0,0,1,.58.6m-1.63-1.95,0,0a1.42,1.42,0,0,0,.44.95,2,2,0,0,0-.51.11l-1.31-.73a1.8,1.8,0,0,1-.11-.66v-.16a2.19,2.19,0,0,1,0-.46Zm1.6,1.4h.09v.1l-.09-.09m0-1.07h.1v.12a.64.64,0,0,0-.1-.13m.37,1.06h.06s0,0-.06.07Zm.91.5a1.35,1.35,0,0,1-.51.14,1.44,1.44,0,0,1-.38-.08,1.07,1.07,0,0,1,.58-.6,1.09,1.09,0,0,1,.55-.15.92.92,0,0,1,.35.06,1,1,0,0,1-.59.63m5.78-.12h-3v-.49h7.57v.49H554Zm5.13,1.24-.16.15,0,.05,0,0,.11.1,0,.05.15-.15,0,0-.15-.15Zm-8.86,0-.14.15,0,.05,0,0,.1.1,0,.05.15-.15,0,0-.15-.15Z" transform="translate(-195.25 -261.05)"/><path class="cls-5" d="M528.69,317.79a34.79,34.79,0,0,0,.59,5.54h.57a32.5,32.5,0,0,1-.6-5.53Zm2.14,0c0,.17,0,.32,0,.41s0,.57,0,.81,0,.14,0,.14.06,0,.06-.09a.86.86,0,0,1,0-.23c0-.14.12-.2.33-.23l1.32-.05,1.09,0c.59,0,1.09,0,1.35,0s.28.05.31.17,0,.13,0,.22,0,.1,0,.1.06,0,0-.13c0-.24,0-.63,0-.77v-.29h-3.23a9,9,0,0,1-1,0l-.19,0Zm6.54,0a25.7,25.7,0,0,0,.8,5.53h.53a24.89,24.89,0,0,1-.79-4.92,1.17,1.17,0,0,1,.17-.61Zm24.88,0a1.09,1.09,0,0,1,.18.61v4.92H563V318.4a1,1,0,0,1,.18-.6Zm25.08,0a1.18,1.18,0,0,1,.18.61,24.89,24.89,0,0,1-.79,4.92h.54a25.1,25.1,0,0,0,.8-5.53Zm6.14,0h0Zm2.71,0a33.55,33.55,0,0,1-.6,5.53h.56a33.43,33.43,0,0,0,.6-5.52Zm-64.37,5.53-.11-.55,2.5-.44c.55-.1,1-.18,1.3-.2s.32,0,.36.12a1,1,0,0,1,.07.22c0,.07,0,.09.06.09s.06-.05,0-.13c0-.25-.13-.63-.17-.77s-.07-.56-.14-1c0-.07,0-.11-.08-.1s0,0,0,.1,0,.23,0,.32-.12.24-.29.29-.74.16-1.3.27l-2.5.44-.12-.78c-.08-.54.06-.74.21-.78h.07c.1,0,.12,0,.11-.09s0-.05-.11,0l-.71.11c-.09,0-.12,0-.11.07a3.43,3.43,0,0,1,.16.57l.4,2.25Zm9.72,0-1.57-.88-.13.24,1.13.64Zm.63,0s0-.09,0-.15a2.33,2.33,0,0,1,.22-.66l.05-.08a1.86,1.86,0,0,1,.14-.25,2.77,2.77,0,0,1,.19-.26c.12-.15.19-.21.33-.36a5.46,5.46,0,0,1,.45-.39l0,0,.23-.15.3-.18h0a5.31,5.31,0,0,1,.64-.3l.36-.12.27-.07h0a3.13,3.13,0,0,1,.6-.1l.4,0h.27a3.59,3.59,0,0,1,.81.1,3.78,3.78,0,0,1,.67.23l.38.19.2.13h0l-.24-.05h0l-.5-.09h-.63l-.71,0h0l-.61.14h0l-.31.12-.26.1-.07,0h0l-.41.22v0l-.45.36-.12.09-.08.1-.28.34h0l-.23.41v0l-.07.29-.08.29h0v0h.57l-.24-.17.09-.34.21-.38.24-.31,1,1.09h0v.12h.28v-.06h0a1.24,1.24,0,0,1,.4.08h.54l-.08,0a1.27,1.27,0,0,0-.27-.18l-.13-.14a1.21,1.21,0,0,1-.29-.73,1.17,1.17,0,0,1,0-.3,1.14,1.14,0,0,1,.73.67,1.66,1.66,0,0,1,.13.58.71.71,0,0,1,0,.14h.38s0-.08,0-.12a1.71,1.71,0,0,1,.14-.59,1.12,1.12,0,0,1,.73-.67,1.13,1.13,0,0,1,0,.3,1.1,1.1,0,0,1-.29.73,1.53,1.53,0,0,1-.18.18l-.14.1-.15.07h.55a1.3,1.3,0,0,1,.41-.08h0a.17.17,0,0,0,0,.07h.28v-.19l0,0,3.33-3.58-.2-.19L548.58,323h-.27a1.31,1.31,0,0,0,.22-.74,1.61,1.61,0,0,0-.09-.51l.28-.62.25.09a1.57,1.57,0,0,1,.54.35l.19-.19-.36-.44h0a2.69,2.69,0,0,0-.37-.3h0l.9-2-.26-.11-.88,1.95a2.24,2.24,0,0,0-.38-.19,3.52,3.52,0,0,0-.71-.25,3.69,3.69,0,0,0-.87-.1h-.28l-.43,0a6.37,6.37,0,0,0-.63.11l-.09,0-.76-1.56-.25.13.74,1.5-.34.11a6,6,0,0,0-.68.32,3.79,3.79,0,0,0-.36.22l-1.33-1.4-.2.18,1.3,1.37,0,0a3.21,3.21,0,0,0-.48.42,2.6,2.6,0,0,0-.36.38l-.2.27-1.57-1.08-.15.23,1.58,1.1a.75.75,0,0,1-.07.12,3.38,3.38,0,0,0-.24.72c0,.08,0,.15,0,.21Zm8.37,0,.14-.1a.36.36,0,0,0,0,.1H551a.3.3,0,0,1,0-.16h1.5v-.29h-1.78a.32.32,0,0,1-.32-.28h2.41a.21.21,0,0,1,.14.21v.51h.28v-.51a.52.52,0,0,0-.16-.37,3.26,3.26,0,0,1,1.76-.48,3.17,3.17,0,0,1,1.72.48.5.5,0,0,0-.17.37v.51h.28v-.51a.22.22,0,0,1,.15-.21h2.41a.32.32,0,0,1-.33.28h-1.78v.29h1.51a.31.31,0,0,1-.06.16h.32a.77.77,0,0,0,0-.15.6.6,0,0,0,.6-.6h0v-.24h0v0H556.8a3.44,3.44,0,0,0-2-.63,3.54,3.54,0,0,0-2.06.63H552l1.55-1.05-.16-.23-1.88,1.28h-1.47v0h0l0,.26h0a.58.58,0,0,0,.3.51l-.34.23Zm15.56,0h.32l-.23-.52h6.19l0,.52h.28l-.06-.8h-6.9a.62.62,0,0,1-.53-.58v-.07a.64.64,0,0,1,.53-.64h.09a.63.63,0,0,1,.44.19.66.66,0,0,1,.2.44v.19h.13a12.87,12.87,0,0,0,1.32.07,12,12,0,0,0,2.52-.3,5.92,5.92,0,0,0,1.45-.4,4.77,4.77,0,0,0,1.15-.68l.11-.09-.1-.11a1,1,0,0,1-.25-.64.93.93,0,0,1,.12-.46.8.8,0,0,1,.33-.4,1,1,0,0,1,1.12,0,.8.8,0,0,1,.33.4,1.05,1.05,0,0,1,.12.46,1,1,0,0,1-.25.64l-.09.11.11.09a4.53,4.53,0,0,0,1.14.68,6,6,0,0,0,1.46.4,11.79,11.79,0,0,0,2.51.3,12.54,12.54,0,0,0,1.31-.07h.14v-.19a.65.65,0,0,1,.19-.44.67.67,0,0,1,.45-.19h.09a.63.63,0,0,1,.52.64v.07a.63.63,0,0,1-.53.58h-6.91l0,.8h.27l0-.52h6.08l-.22.52h.61l-.22-.52h.42a.91.91,0,0,0,.79-.83v-.1a.91.91,0,0,0-.76-.91h-.13a.93.93,0,0,0-.91.84c-.43,0-.81.06-1.17.06a11.41,11.41,0,0,1-2.45-.3,6.21,6.21,0,0,1-1.41-.38,4.27,4.27,0,0,1-1-.57,1.21,1.21,0,0,0,.24-.7,1.25,1.25,0,0,0-.15-.58,1.18,1.18,0,0,0-.43-.52,2.07,2.07,0,0,0-.69-.22h0a2.07,2.07,0,0,0-.69.22,1.26,1.26,0,0,0-.44.52,1.37,1.37,0,0,0-.14.58,1.27,1.27,0,0,0,.23.7,4.2,4.2,0,0,1-1,.57,6.21,6.21,0,0,1-1.41.38,11.41,11.41,0,0,1-2.45.3c-.36,0-.74,0-1.17-.06a1,1,0,0,0-.91-.84h-.14a.91.91,0,0,0-.75.91v.1a.91.91,0,0,0,.79.83H566l-.22.52Zm26.85,0a2.46,2.46,0,0,0,1.18-1.93,2.39,2.39,0,0,0-2-2.87,2.36,2.36,0,0,0-2.75,2.14,2.44,2.44,0,0,0,1.36,2.66Zm.91-2.15a2,2,0,0,1-2.47,1.49c-1.78-.25-1.85-1.28-1.78-1.71a2,2,0,0,1,2.54-1.56c1.53.22,1.81,1.08,1.71,1.78M546,323h-.3l-1-1,.41-.34.39-.21.08,0,.24.47A1.3,1.3,0,0,0,546,323m1-1.42v.79a1.5,1.5,0,0,0-.95-.72l-.19-.38.27-.1.58-.13.69,0,.58,0,.42.07-.27.6a1.43,1.43,0,0,0-.85.66v-.76Z" transform="translate(-195.25 -261.05)"/><path class="cls-5" d="M529,312.27a33.9,33.9,0,0,0-.32,4.64c0,.3,0,.59,0,.89h.56c0-.29,0-.58,0-.88a33.9,33.9,0,0,1,.32-4.64Zm6.79,0,0,0h0Zm2,0a25.42,25.42,0,0,0-.42,4.64c0,.3,0,.59,0,.88h.71a1.2,1.2,0,0,1,1-.57h22.17a1.2,1.2,0,0,1,1,.58h.91a1.23,1.23,0,0,1,1-.57h22.17a1.17,1.17,0,0,1,1,.57h.73c0-.29,0-.58,0-.88a25.42,25.42,0,0,0-.42-4.64h-.53a27.18,27.18,0,0,1,.39,3.17,1.21,1.21,0,0,1-1.16,1.19H564.18a1.23,1.23,0,0,1-1.2-1.19v-3.17h-.55v3.17a1.22,1.22,0,0,1-1.19,1.19H539.07a1.21,1.21,0,0,1-1.16-1.19,25.19,25.19,0,0,1,.39-3.17Zm9.25,0,0,.12,0,0,.17.21v.09a.63.63,0,0,0,.09.33v0l.25.32a.4.4,0,0,1-.07.13h0l-.78.67a1.19,1.19,0,0,0-.47.94v.13h4.33v-.14a1.19,1.19,0,0,0-.44-.93h0l-.79-.65a.34.34,0,0,1-.1-.23v-.5a.48.48,0,0,0,.15-.11.57.57,0,0,0,.22-.42h-.27a.35.35,0,0,1-.1.2l0,0a.18.18,0,0,1-.1.07h0l-.12,0h-.14l-.53.13h0a.8.8,0,0,0-.42.18s0,0,0,.05a.2.2,0,0,0-.09.09l0,0-.11-.15,0,0a.45.45,0,0,1-.06-.2l0-.12s0,0,0-.06l.05-.09,0-.06h0l.11-.08h0l.09,0h-.47l0,0,0,0H547Zm7.36,0v3h2.5v-3h-.28V315h-2v-2.74Zm12.16,0-1.3,3,.24.14,1.23-2v1.82h13.86v-1.59l1,1.8.25-.12-1.19-3.09h-.3l.07.19.14.35h0l.36.93-.36-.63h0l-.27-.47v0l-.2-.35h-.46V315h-1v-2.73h-.27V315h-.3v-2.73h-.28V315h-1v-2.73h-.29V315h-.32v-2.73H576V315h-1v-2.73h-.28V315h-.29v-2.73h-.28V315h-1v-2.73h-.28V315h-.3v-2.73h-.28V315h-.95v-2.73h-.27V315h-.32v-2.73h-.29V315h-1v-2.73h-.28V315h-.29v-2.73h-.28V315h-1v-2.73h-.53l-.13.22-.14.22-.14.21-.51.81.51-1.17.12-.29Zm24,0-.94.56a.1.1,0,0,1-.15,0l-.07-.08s0,.09,0,.2c.08.49.16.94.2,1.15s.06.28.1.28l0-.09a2.13,2.13,0,0,1,0-.27c0-.13.06-.32.57-.65s1-.66,1.71-1.07Zm5.35,0a33.9,33.9,0,0,1,.32,4.64c0,.3,0,.59,0,.88h.56c0-.29,0-.58,0-.88a33.65,33.65,0,0,0-.32-4.63Zm-64.76,5.52a.23.23,0,0,1-.16-.19.68.68,0,0,1,0-.19c0-.06,0-.1-.07-.1s0,.06,0,.14,0,.22,0,.34Zm4.39,0c0-.19,0-.43,0-.68,0-.07,0-.11-.06-.11s0,0,0,.1a1.58,1.58,0,0,1,0,.31c0,.19-.13.24-.3.26a12.37,12.37,0,0,1-1.35.07l-1.09,0-.35,0Zm58.84,0s0,0,0,0a3.2,3.2,0,0,1-.07-.59l0-2.45c0-.21,0-.44,0-.63a1.72,1.72,0,0,1,.06-.26s0-.06-.11-.07a4.91,4.91,0,0,0-.72-.12c-.06,0-.1,0-.09.05l.07.07a.66.66,0,0,1,.22.1c.14.09.17.24.19.6l0,.92-2.54.05c-.57,0-1.06,0-1.32,0s-.31-.05-.34-.18a.65.65,0,0,1,0-.22c0-.07,0-.1-.05-.1s-.06.05-.06.13c0,.25,0,.63,0,.78s0,.56,0,1c0,.07,0,.11.06.11s.05,0,.05-.09,0-.23,0-.32.16-.22.33-.24a13,13,0,0,1,1.33-.06l2.53-.05v.78c0,.56-.17.72-.34.74h-.06c-.1,0-.13,0-.13.07s0,0,.06.05Zm-63.47-1.85s0,0,.06-.11a1.42,1.42,0,0,1,0-.24c.06-.2.16-.24.37-.24s.37,0,1.31.08l1.09.08c.59,0,1.06.07,1.32.12s.31.08.32.2a1.55,1.55,0,0,1,0,.23c0,.06,0,.09,0,.09s.07,0,.08-.12c0-.24,0-.63,0-.79s.06-.55.09-.94c0-.09,0-.14-.06-.14s0,0,0,.1,0,.22,0,.31-.18.21-.36.21-.72,0-1.31,0l-.51,0,0,0c0-.11.06-.76.09-.92a.35.35,0,0,1,.24-.3.72.72,0,0,1,.19,0l.1,0c0-.06-.06-.07-.12-.08l-.45-.05-.38-.08-.06,0,.06.08a.36.36,0,0,1,.09.27c0,.09,0,.18,0,.28l-.05.8-.06,0-1.55-.11c-.06,0-.08,0-.08-.07l.09-.95a.44.44,0,0,1,.21-.39.53.53,0,0,1,.24,0c.06,0,.1,0,.1-.06l-.08-.06a5,5,0,0,0-.5-.07,2.16,2.16,0,0,1-.27-.07l-.06,0,0,.1a1.78,1.78,0,0,1,0,.26c0,.14-.1,1.4-.11,1.63s-.06.57-.08.89c0,.09,0,.14,0,.15m36.51-.94H567v-2l.38-.61Zm12.92,0h-.38v-2.48l.38.67ZM550,314.41a.91.91,0,0,1,.34.58h-3.76a1,1,0,0,1,.35-.59h0l.8-.67h0a.62.62,0,0,0,.16-.38.73.73,0,0,1,.14-.18.54.54,0,0,1,.35-.16h0l.52-.12H549v.43a.61.61,0,0,0,.22.44Z" transform="translate(-195.25 -261.05)"/><path class="cls-5" d="M534.41,295.71a1.31,1.31,0,0,1-.41.5.26.26,0,0,1-.14.07l-.2,0h0a.7.7,0,0,1-.23-.06,1.46,1.46,0,0,0-.43-.09h-.06a1.83,1.83,0,0,0-.4.05,1.17,1.17,0,0,0-.44.19.76.76,0,0,0-.25.29.83.83,0,0,0-.07.34c0,.07,0,.15,0,.22a.88.88,0,0,0,.21.42,1.07,1.07,0,0,0,.32.25,1,1,0,0,0,.33.13,1.63,1.63,0,0,0,.31,0h0a2.24,2.24,0,0,0,.87-.17c.24-.11.58-.22.92-.4A33.79,33.79,0,0,0,529,312.27h.55A33.33,33.33,0,0,1,536,296.7c.13-.17.26-.35.4-.52l.38-.48h-.71l-.35.45.14-.24h0l.12-.21h-.31a.28.28,0,0,0,0,.07c-.19.3-.26.43-.32.51a2.11,2.11,0,0,1-.32.33,3.73,3.73,0,0,1-.31.28,6.76,6.76,0,0,1-1.1.51,1.75,1.75,0,0,1-.65.12h-.24a.52.52,0,0,1-.16-.07.44.44,0,0,1-.19-.14.26.26,0,0,1-.07-.14V297l0-.11.05-.06h0a.62.62,0,0,1,.26-.13l.3,0h0a.6.6,0,0,1,.24,0,1.36,1.36,0,0,0,.42.08h.12a1,1,0,0,0,.28,0,.66.66,0,0,0,.31-.16,1.6,1.6,0,0,0,.59-.72c.05-.08.08-.15.12-.22Zm8.07,0,.17.21a1.74,1.74,0,0,0,2.79.45,1.86,1.86,0,0,0,.57-.66h-.37a1.41,1.41,0,0,1-.31.33,1.16,1.16,0,0,1-.76.27,1.43,1.43,0,0,1-1.08-.61Zm6.34,0a25.32,25.32,0,0,0-11,16.56h.52a24.87,24.87,0,0,1,10.78-16.12l.71-.45Zm5.57,0v4.2h-4.23v2.55h4.24v9.81h.28V302.18h-4.24v-2h4.22l0-.26h0v-4.22Zm2.22,0v4.48h4.31v2h-4.31v10.09h.28v-9.81h4.31v-2.55h-4.31v-4.2Zm5.82,0v16.56H563V295.71Zm13.19,0,.71.44a24.82,24.82,0,0,1,10.79,16.12h.53a25.36,25.36,0,0,0-11-16.57Zm3.4,0,.41.31c.15.13.34.32.49.44l.12,0,0-.1-.07-.06c-.15-.12-.14-.22-.06-.3a1.11,1.11,0,0,1,.31-.23l.15-.08Zm2.52,0,.6.5,0,.07-.47,1.32c0,.09-.09.1-.13.08h-.1s0,.08.1.16c.38.32.72.61.9.75s.22.18.25.14l0-.09a1.57,1.57,0,0,1-.19-.18c-.08-.11-.16-.29,0-.87.13-.43.37-1.16.6-1.88h-.76l-.07.18h0l-.23-.19Zm7.07,0,.21.25.25.32.24.31a33.28,33.28,0,0,1,6.56,15.68h.56a33.83,33.83,0,0,0-5.7-14.68,3.12,3.12,0,0,0,.62.29,3.37,3.37,0,0,0,1.09.21h0a1.45,1.45,0,0,0,.3,0,.89.89,0,0,0,.34-.13,1.21,1.21,0,0,0,.32-.25.87.87,0,0,0,.2-.42,1.64,1.64,0,0,0,0-.22.83.83,0,0,0-.07-.34.76.76,0,0,0-.25-.29,1.11,1.11,0,0,0-.44-.19,1.67,1.67,0,0,0-.39-.05h-.06a1.39,1.39,0,0,0-.43.09.64.64,0,0,1-.24.06h0l-.21,0-.11-.06a1.94,1.94,0,0,1-.25-.22,2.25,2.25,0,0,1-.17-.29h-.63c0,.08.08.15.12.24s.16.28.24.4a3,3,0,0,0,.34.3.8.8,0,0,0,.33.17l.28,0h.11a1.36,1.36,0,0,0,.42-.08.65.65,0,0,1,.25,0h0l.31,0a.77.77,0,0,1,.25.12l.06.06,0,.11,0,.13a.26.26,0,0,1-.06.14.62.62,0,0,1-.19.14.52.52,0,0,1-.16.07h-.23a2.75,2.75,0,0,1-.9-.17,3.21,3.21,0,0,1-.88-.48l-.29-.26,0-.05a3.63,3.63,0,0,1-.3-.35l0,0-.24-.4h0l0-.07h-.32l.12.21h0l0,0c-.07-.08-.13-.17-.2-.26Zm-52.76,16.56a.13.13,0,0,0,0-.09c.06-.24.12-.62.16-.76s.14-.54.24-.94c0-.07,0-.12,0-.13s-.06,0-.07.09a2.64,2.64,0,0,1-.1.3c-.07.17-.18.19-.34.17s-.75-.14-1.33-.28l-1.07-.25-1.27-.3c-.21-.06-.3-.13-.3-.3a1,1,0,0,1,0-.19l0-.11s-.06,0-.08.11c-.05.23-.11.59-.15.75s-.14.55-.19.78,0,.14,0,.15l.08-.08a1.29,1.29,0,0,1,.07-.21c.07-.13.18-.17.39-.13s.36.07,1.28.28l1.06.25c.59.13,1.07.25,1.31.33s.27.12.26.25a1,1,0,0,1,0,.22.14.14,0,0,0,0,.09Zm11.47,0-.11-.32,0-.12,0-.12a.52.52,0,0,1,.22-.31.46.46,0,0,1,.16-.11l.14-.05h0l.11,0,.35-.11.34-.11a.73.73,0,0,0,.39-.2l0,0a.7.7,0,0,0,.14-.16l.09-.16h0l0-.07,0,0,0,0,.12.19.06.25v.26a.77.77,0,0,1-.19.29l0,0,0,0h0l-.12.08-.13.09h0l-.08,0a1.41,1.41,0,0,1-.57.14h0l-.43.15-.1,0h0l-.14.06a.7.7,0,0,0-.16.13h0v0s0,0,0,.06h.51l.28-.12.3-.08.33-.06h0l.18-.08.09,0h0l0,0,0,0,0,0,.07.1h0a.39.39,0,0,1,.1.28h0v0h.27v-.06a.68.68,0,0,0-.16-.46h0l-.06-.08.07-.07a1.09,1.09,0,0,0,.27-.4v-.38l-.08-.29v0l-.14-.24v0l-.23-.23a.7.7,0,0,1,.18-.39,4.22,4.22,0,0,1,.85-.71c.33-.25.58-.41.8-.59a2.11,2.11,0,0,0,.57-.71,2.9,2.9,0,0,0,.36-1.73v-.14l-7.23,0V306a2.89,2.89,0,0,0,.32,1.61,2.16,2.16,0,0,0,.58.72c.22.18.47.33.8.58a5.64,5.64,0,0,1,.66.51l-.15,0-.06,0c-.12,0-.47-.15-1.22-.44h0c-.39-.24-.71-.4-1-.59a1.89,1.89,0,0,1-.59-.73,2,2,0,0,1-.19-1,4.1,4.1,0,0,1,.09-.68c0-.19.09-.36.11-.47s.13-.28.17-.35.09-.14.29-.3a3.14,3.14,0,0,1,1.18-.44l.24,0,.45,0,.26.07h0a2.74,2.74,0,0,0,1.26.57h.15a3.2,3.2,0,0,0,.65-.06,2.6,2.6,0,0,0,1-.41l.06-.06h.16a1.55,1.55,0,0,0,.37-.06,1.1,1.1,0,0,0,.3-.2l.13-.13-.18,0h-.26a2.2,2.2,0,0,1-.47-.1h0a.32.32,0,0,0,0-.06v0l0,0c-.19-.2-.26-.29-.33-.37a1.84,1.84,0,0,0-.28-.27h0a1.43,1.43,0,0,0-.31-.17,4.3,4.3,0,0,0-.41-.16,1.64,1.64,0,0,0-.42-.06c-.35,0-.64.12-.8.12-.59,0-1.17-.18-1.72-.18a1.68,1.68,0,0,0-.54.08,5.61,5.61,0,0,0-1,.43h0a3.47,3.47,0,0,0-.67.64,4.37,4.37,0,0,0-.49.74h0a6.35,6.35,0,0,0-.3.9,3.84,3.84,0,0,0-.09.87c0,.1,0,.21,0,.3a3.34,3.34,0,0,0,.21.95,4.38,4.38,0,0,0,2.75,2.54,8.71,8.71,0,0,0,2,.65,1.11,1.11,0,0,0-.24.16.9.9,0,0,0-.3.45,1.37,1.37,0,0,0,0,.19,1.23,1.23,0,0,0,0,.19h0l.09.25Zm19.52,0,0,0,.14-.32,3.08-7.1h0l.06-.13h0l.06-.13h0l.37-.86.06-.13.07-.15,1.32-3,.05-.11a2.65,2.65,0,0,0,.72.68,1.76,1.76,0,0,0,.8.24h.21l.36,0v0l-.16.24-.22.35h0l-1,1.63-.09.15-.08.13-.55.86h0l-.08.13h0l-.09.13h0l-4.71,7.45h.53V312l1-1.51v1.81h.28v-2h-.12l1.47-2.33h7l1.23,2.15h-.08v2.24h.27v-1.92l1,1.68v.24h.46l-4.26-7.45h0l-.08-.13h0l-.08-.13h0l-.49-.86-.08-.13-.08-.15-.93-1.63h0l.25-.37.2-.3v0l.27-.1a1.46,1.46,0,0,0,.53-.37h0c.14-.16.25-.31.33-.42h0L577,303.4l.06.15,0,.13.33.86h0l.05.13h0l.06.13h0l2.8,7.26v0l.06.16h.3l-.08-.21v-2.39l.32,0h.1a2.57,2.57,0,0,0,2.39-2.28,3.67,3.67,0,0,0,0-.46,2.28,2.28,0,0,0-.8-1.77,2.25,2.25,0,0,0-1.59-.64h-.54l.88-1.14h-4.13l-1.38-3.57A2.26,2.26,0,0,0,576,299a2.16,2.16,0,0,0-4.32,0,2.32,2.32,0,0,0,.2.88l-.13.32-1.37,3.16h-5l.84,1.15a2.16,2.16,0,0,0-1.5.63,2.22,2.22,0,0,0-.79,1.76h0a2.42,2.42,0,0,0,0,.46,2.58,2.58,0,0,0,2.38,2.28h.32v2.17l-.17.4Zm2.62,0v-2a.52.52,0,0,1,.49-.42H570a.45.45,0,0,1,.42.37v2h.29V310.2h0a.76.76,0,0,0-.66-.6H570a.78.78,0,0,0-.77.67v2Zm1.86,0v-2a.5.5,0,0,1,.49-.44h.06a.44.44,0,0,1,.4.37v2h.28V310.2h0a.74.74,0,0,0-.65-.6h-.09a.76.76,0,0,0-.76.67v2Zm1.81,0v-2a1.07,1.07,0,0,1,.21-.35.66.66,0,0,1,.31-.12.77.77,0,0,1,.31.12,1,1,0,0,1,.21.36v2h.28v-2a1.14,1.14,0,0,0-.3-.49,1.12,1.12,0,0,0-.46-.19l0,.13,0-.13a1.07,1.07,0,0,0-.46.19,1.25,1.25,0,0,0-.3.49v2Zm1.89,0v-2a.45.45,0,0,1,.41-.38h.06a.49.49,0,0,1,.48.42v2h.28v-2a.77.77,0,0,0-.76-.67h-.1a.74.74,0,0,0-.65.6v2.08Zm1.84,0v-2a.46.46,0,0,1,.41-.36h.07a.49.49,0,0,1,.49.44v2h.28v-2h0a.78.78,0,0,0-.77-.67h-.1a.75.75,0,0,0-.66.6h0v2.07Zm15.08,0,1.77-1.1c.13-.09.18-.13.17-.19s-.08-.09-.27-.13l-4.1-.85c-.33-.07-.55-.15-.64-.43l0-.19-.06-.06s0,.05,0,.13c0,.31.13.65.15.72s0,.46.09.64,0,.11.08.1,0,0,0-.1v-.1c0-.18,0-.25.14-.27a1.1,1.1,0,0,1,.39,0l.93.18.06.05.24,1.36,0,.07-.27.15Zm-57.81-3.46a2.36,2.36,0,0,0,2,0,3.08,3.08,0,0,0,1.41-1.71,3.35,3.35,0,0,0,.29-1.09.23.23,0,0,0-.1-.22,6.39,6.39,0,0,0-.72-.44l-.11,0c0,.05,0,.07.09.12a1.17,1.17,0,0,1,.3.35,1.37,1.37,0,0,1-.1,1.18,2.09,2.09,0,0,1-2.78,1,2.12,2.12,0,0,1-1.27-1.13,1.63,1.63,0,0,1,.08-1.23,1.82,1.82,0,0,1,.83-1,.91.91,0,0,1,.61,0c.09,0,.13,0,.15,0s0-.09-.1-.13-.43-.18-.62-.26l-.3-.16-.1.06c-.09.16-.21.32-.33.53a7.66,7.66,0,0,0-.4.81,2.73,2.73,0,0,0-.12,2.06,2.36,2.36,0,0,0,1.31,1.31m.17-6.15.1-.05a.93.93,0,0,1,.13-.18c.1-.11.22-.11.41,0s.33.17,1.15.64l.94.55c.52.3.94.54,1.15.7s.22.19.18.31a1,1,0,0,1-.09.2c0,.07,0,.1,0,.11s.08,0,.12-.07l.37-.69c.08-.14.3-.46.5-.82v-.13l-.09,0a3.16,3.16,0,0,1-.18.27.28.28,0,0,1-.39.06c-.24-.11-.67-.35-1.19-.66l-.95-.54c-.8-.47-1-.56-1.12-.67s-.25-.22-.2-.38a1.38,1.38,0,0,1,.08-.17v-.11s-.07,0-.11.08-.28.54-.36.67-.31.49-.42.69-.06.13,0,.15m4.84-.46c.18.28.28.51.14.75l-.1.17v.09c.05,0,.08,0,.13-.06l.41-.6c.11-.16.29-.36.4-.53v-.11l-.09,0L540,302c-.11.16-.21.16-.3.09a1.32,1.32,0,0,1-.25-.29l-.52-.8V301l.82-1.12.06,0,1.36.38a.11.11,0,0,1,.09.13l0,.1s.09,0,.16-.12c.3-.39.57-.76.7-.94s.15-.24.11-.27l-.08,0-.18.2c-.1.08-.27.18-.87,0-1-.23-3.62-.92-4-1-.15,0-.22,0-.25,0s0,.12.1.29Zm-1.33-2.95,1.57.45v.05l-.68.92h-.05l-.89-1.35,0-.07Zm45.19-.1a1.2,1.2,0,0,1-.16-.16l-.1-.05s0,.08,0,.14.41.48.5.59.49.73.78,1.08a2.81,2.81,0,0,0,1.87,1.15,2.4,2.4,0,0,0,1.76-.56,2.2,2.2,0,0,0,.85-1.46,3.25,3.25,0,0,0-1-2.38c-.23-.29-.49-.58-.62-.73l-.54-.7c-.06-.07-.1-.1-.13-.07l0,.12a1.3,1.3,0,0,1,.13.19c.1.19.05.29-.11.43s-.28.25-1,.84l-.85.68a12.4,12.4,0,0,1-1,.81c-.15.1-.27.16-.37.08m.94.61c0-.09.2-.25.32-.35s.45-.39,1-.8l.6-.49,1-.77.14,0a1.47,1.47,0,0,1,.29.28,2.42,2.42,0,0,1,.62,1.76,2.1,2.1,0,0,1-.82,1.43,1.73,1.73,0,0,1-2.78-.26c-.3-.38-.35-.64-.31-.78m3.88,5.93a3.22,3.22,0,0,0,.17,2.23,3.67,3.67,0,0,0,.55,1,.23.23,0,0,0,.23.08,5.83,5.83,0,0,0,.82-.18l.07-.09s-.06,0-.15,0a1,1,0,0,1-.47,0c-.35-.12-.53-.4-.74-.92a2.08,2.08,0,0,1,1.31-2.63,2,2,0,0,1,1.71-.07,1.57,1.57,0,0,1,.79.93,1.83,1.83,0,0,1,.11,1.31,1,1,0,0,1-.43.44c-.09,0-.13.06-.11.1s.07.05.16,0l.62-.24.34-.1s.05-.05,0-.11-.07-.39-.13-.62a7.58,7.58,0,0,0-.28-.85,2.72,2.72,0,0,0-1.34-1.57,2.32,2.32,0,0,0-1.85,0,2.38,2.38,0,0,0-1.41,1.39m3.13,5,1.59.29.07,0-.06,0-1.4.81,0,0-.2-1.12Zm-17.09-10.09a1.6,1.6,0,1,0-1.6-1.6,1.6,1.6,0,0,0,1.6,1.6m0-2.91a1.32,1.32,0,0,1,1.32,1.31,1.32,1.32,0,1,1-2.64,0,1.32,1.32,0,0,1,1.32-1.31m1,5.95.49.86h-3l.54-.86Zm-1.8-.28.86-1.36.78,1.36Zm2.45,1.42,1.59,2.79h-6.7l1.76-2.79Zm5.51,0a1.93,1.93,0,0,1,1.42.57,2,2,0,0,1,.7,1.56c0,.13,0,.27,0,.42a2.34,2.34,0,0,1-2.08,2h-.26a1.79,1.79,0,0,1-1.72-1.66v-.09a1.2,1.2,0,0,1,.27-.81,1.39,1.39,0,0,1,.82-.45.69.69,0,0,1,.2,0,.81.81,0,0,1,.84.68v.07a.7.7,0,0,1-.46.69l.12.26a1,1,0,0,0,.62-.95V307a1.09,1.09,0,0,0-1.12-.93l-.25,0a1.81,1.81,0,0,0-1,.55,1.39,1.39,0,0,0-.32.79l-1-2.63Zm-.73,4.76v1.73l-.85-2.19a2.19,2.19,0,0,0,.85.46m.52-5.9-.67.86h-2.47l-.33-.86Zm-7-6.51a1.87,1.87,0,0,1,1.61,2.84l-.29.38a2.19,2.19,0,0,1-.39.29l-.1.05-.19.07h0l-.05,0h0a3,3,0,0,1-.57.05l-.31,0a1.87,1.87,0,0,1,.37-3.7M567,311.24v-1.63a2.36,2.36,0,0,0,.89-.42Zm-1-7.56h4.28l-.37.86h-3.27Zm-1.19,1.88a1.37,1.37,0,0,1,.17-.17h0a2,2,0,0,1,1.41-.57h3.4l-1.16,2.68a1.56,1.56,0,0,0-.33-.84,1.84,1.84,0,0,0-1-.55l-.24,0a1.07,1.07,0,0,0-1.12.93v.09a1,1,0,0,0,.63.95l.11-.26a.73.73,0,0,1-.46-.69V307a.8.8,0,0,1,.84-.68.63.63,0,0,1,.19,0,1.42,1.42,0,0,1,.83.45,1.2,1.2,0,0,1,.27.81v.09a1.8,1.8,0,0,1-1.78,1.67h-.16a2.31,2.31,0,0,1-2.1-2.05,2.08,2.08,0,0,1,0-.42,1.9,1.9,0,0,1,.53-1.39m-16.28-1.5c.11,0,.22-.05.22-.17s-.11-.17-.22-.17-.22,0-.22.17.11.17.22.17m-3,6.05a4,4,0,0,1-2.59-2.36,2.85,2.85,0,0,1-.19-.88c0-.09,0-.18,0-.28a3.9,3.9,0,0,1,.08-.81,4.93,4.93,0,0,1,.29-.85,4.11,4.11,0,0,1,.45-.7,4,4,0,0,1,.62-.58,4.22,4.22,0,0,1,.95-.4,1.38,1.38,0,0,1,.46-.06c.49,0,1.08.16,1.72.17.25,0,.51-.12.8-.11a1,1,0,0,1,.34,0,2.21,2.21,0,0,1,.37.15,1,1,0,0,1,.5.36c0,.07.14.16.29.33l0,0,0,.18v0l0,0a2.21,2.21,0,0,1-.81.35,2.43,2.43,0,0,1-.59.05h-.12a2.56,2.56,0,0,1-1.14-.53l-.09-.05-.3-.07h0l-.47,0a1.42,1.42,0,0,0-.29,0h0a3,3,0,0,0-1.28.48,1,1,0,0,0-.38.4,1.78,1.78,0,0,1-.17.34l0,0v0c0,.06-.06.26-.11.49a3.47,3.47,0,0,0-.1.73,2.35,2.35,0,0,0,.22,1.08,2.19,2.19,0,0,0,.67.84,8.56,8.56,0,0,0,1,.61v0h0c1,.38,1.3.46,1.31.47l.51.13h0l.08.31a.44.44,0,0,0,0,.1v.56a8.08,8.08,0,0,1-2-.66m-.44-4.11,6.66,0a2.38,2.38,0,0,1-.31,1.46,2.14,2.14,0,0,1-.51.64c-.19.16-.44.31-.78.56a4.28,4.28,0,0,0-.9.76,1.32,1.32,0,0,0-.28.71v.06l0,.1a.68.68,0,0,1-.18.26h0a.53.53,0,0,1-.27.13h0l-.36.11-.25.08h0v-.75l0-.16a1.05,1.05,0,0,0-.06-.24.71.71,0,0,0-.11-.21.36.36,0,0,0-.07-.1,4.54,4.54,0,0,0-.9-.76c-.34-.25-.59-.4-.79-.56a2.13,2.13,0,0,1-.5-.64,2.44,2.44,0,0,1-.29-1.48Z" transform="translate(-195.25 -261.05)"/><path class="cls-5" d="M534.24,290.17c0,.14,0,.29.07.43a1.47,1.47,0,0,0-.63.56,1.31,1.31,0,0,0-.18.7,2.15,2.15,0,0,0,.07.5l0,.07.2.27.05.05a1.39,1.39,0,0,0,.81.36,1.54,1.54,0,0,0,.3,0h.09c0,.27-.08.54-.15.85s-.12.62-.17.87a3.53,3.53,0,0,1-.31.81l0,0H535a3.64,3.64,0,0,0,.24-.73c.07-.28.1-.54.18-.88a3.73,3.73,0,0,0,.08-.44c.12-.42.2-.81.28-1.08a.61.61,0,0,1,.17-.32l.1-.05a1.06,1.06,0,0,1,.38-.07h.2l.18,0h0a.69.69,0,0,1,.31.19.61.61,0,0,1,.18.3l0,.11a.42.42,0,0,1-.18.36.37.37,0,0,1-.21.07.54.54,0,0,1-.19,0l-.18-.09,0,.2a4.1,4.1,0,0,1-.12.7,5.1,5.1,0,0,1-.47,1.18c-.12.25-.24.46-.29.56H536a7.74,7.74,0,0,0,.72-1.67,4.72,4.72,0,0,0,.11-.57l.13,0a.65.65,0,0,0,.37-.12.71.71,0,0,0,.29-.59l0-.17a.73.73,0,0,0-.17-.34l.53.07h0l.53-.1a1.58,1.58,0,0,0,.79-.38,1.62,1.62,0,0,0,.42-.66,1.65,1.65,0,0,0,.13-.66,2.4,2.4,0,0,0,0-.37h-.27a2.49,2.49,0,0,1,0,.37,1.44,1.44,0,0,1-.1.56,1.26,1.26,0,0,1-.36.55,1.18,1.18,0,0,1-.65.32l-.49.09-.64-.09h0a2.28,2.28,0,0,0-.52-.1h-.09a1.15,1.15,0,0,0-.26,0,.93.93,0,0,0-.27,0,1.08,1.08,0,0,0-.32.12h0l-.18.14a1.06,1.06,0,0,1-.24.19,1.9,1.9,0,0,1-.47.24l-.2,0a.83.83,0,0,1-.51-.23l-.15-.19a1.45,1.45,0,0,1,0-.29.86.86,0,0,1,.11-.43,1.13,1.13,0,0,1,.55-.4l.08,0a4.31,4.31,0,0,1,.55-.05h.14a3.27,3.27,0,0,1,.61.05l.6.09h0a6.5,6.5,0,0,0,.77.12l.37,0h0a.73.73,0,0,0,.74-.74v-.16c0-.05,0-.11,0-.16h-.29a.8.8,0,0,1,0,.18v.14a.38.38,0,0,1-.07.25.44.44,0,0,1-.39.22h0l-.35,0a6.37,6.37,0,0,1-.74-.13h0l-.61-.08a2.56,2.56,0,0,0-.66-.07h-.15c-.16,0-.29,0-.41,0l0,.09-.07,0-.18.09h0l.18-.09.07,0,0-.09-.06-.12c-.05-.13-.11-.26-.15-.39Zm.47,0,.15.39-.06-.39Zm6.44,0,.45.06a33.94,33.94,0,0,0-5.5,5.48h.71l0,0c.69-.84,1.42-1.64,2.19-2.41a33.42,33.42,0,0,1,3.53-3.08Zm4.79,0,0,.06,1.61,3.3c.24.49.3.65.18.77a.87.87,0,0,1-.24.15l-.06.09s.08,0,.15,0l.58-.32c.11-.06.34-.15.7-.33.07,0,.12-.08.1-.13s-.06,0-.12,0a1.42,1.42,0,0,1-.31.11c-.12,0-.27-.09-.5-.52l-1.24-2.28h0c.16.05,1.12.43,2,.72l2.46.79a.38.38,0,0,0,.25,0c.05,0,0-.09,0-.22l-1.09-2.22H550l.77,1.43,0,0-1.86-.64c-.92-.3-1.91-.65-2.36-.81Zm7,0c.19.57.33,1,.39,1.27s0,.28-.08.35a.63.63,0,0,1-.2.09c-.07,0-.09.05-.08.08s.06.05.13,0c.24-.07.6-.21.74-.26l.92-.28c.07,0,.11-.05.1-.09s0,0-.11,0l-.31.08c-.18,0-.26-.06-.33-.22s-.21-.57-.36-1Zm3.93,0,.25.39c.17.27.22.35.3.34s.1-.12.2-.5c0-.06,0-.14.05-.23Zm3.45,0a.17.17,0,0,1-.12.1l-.22,0c-.07,0-.1,0-.1.06s0,.06.12.06l.79,0c.36,0,.77,0,1.71,0,.23,0,.29,0,.33-.16a.09.09,0,0,1,0-.05Zm3.91,0-.06,0H564c-.07,0-.1,0-.1,0s0,.06.11.07l.75.08.9.12c.08,0,.13,0,.13,0l-.07-.06-.29-.06a.23.23,0,0,1-.18-.17Zm2.63,0a2,2,0,0,0,.38.42,1.32,1.32,0,0,0,.65.19l.58.08.1,0,0,.05a2.37,2.37,0,0,0,.83.39,1.86,1.86,0,0,0,1,0,1.25,1.25,0,0,0,.84-.89c0-.08,0-.16,0-.23h-.73a.89.89,0,0,1,0,.37.77.77,0,0,1-1,.48.86.86,0,0,1-.69-.84h-.22c0,.14-.09.32-.14.48v.11h0a.68.68,0,0,1-.17,0,1.22,1.22,0,0,1-.64-.5l0,0Zm6.27,0-.11.29c-.21.56-.39,1-.51,1.25s-.15.24-.28.23l-.21-.06c-.07,0-.11,0-.12,0s0,.08.09.11l.75.26.9.37c.05,0,.1,0,.12,0s0-.06-.08-.09a1.47,1.47,0,0,1-.28-.14c-.16-.08-.16-.2-.12-.36s.24-.72.46-1.28l.21-.56Zm3.76,0c-.08.14-.2.32-.34.55l-.58.92c-.31.48-.56.9-.73,1.1s-.21.25-.33.2a1.22,1.22,0,0,1-.2-.1c-.07,0-.1,0-.11,0s0,.08.07.12l.68.4c.25.16.69.52,1.07.76a2.84,2.84,0,0,0,2.15.48,2.47,2.47,0,0,0,1.49-1.11,2.21,2.21,0,0,0,.32-1.65,2.78,2.78,0,0,0-1.33-1.66h-.54a2.33,2.33,0,0,1,1.06,1.39,2,2,0,0,1-.31,1.63,2,2,0,0,1-1.26,1,2.06,2.06,0,0,1-1.45-.38c-.41-.26-.55-.5-.55-.64a1.29,1.29,0,0,1,.19-.44l.65-1.06.42-.67.55-.87Zm5.94,0a34.56,34.56,0,0,1,3.54,3.08,32.41,32.41,0,0,1,2.22,2.46h.72a34.35,34.35,0,0,0-5.5-5.48l.43-.06Zm2.71,0c0,.13,0,.25,0,.37a1.47,1.47,0,0,0,.12.66h0a1.62,1.62,0,0,0,.42.66,1.51,1.51,0,0,0,.78.38h0l.51.1h0l.55-.07a.86.86,0,0,0-.18.34h0c0,.05,0,.11,0,.17a.68.68,0,0,0,.3.59.63.63,0,0,0,.37.12l.13,0a4.58,4.58,0,0,0,.1.57,7.74,7.74,0,0,0,.72,1.67h.32c-.06-.1-.17-.31-.3-.56a6.17,6.17,0,0,1-.47-1.18,5.38,5.38,0,0,1-.12-.7l0-.2-.18.09a.45.45,0,0,1-.18,0,.4.4,0,0,1-.39-.43v-.11a.74.74,0,0,1,.19-.3.69.69,0,0,1,.31-.19h0l.19,0h.2a1.1,1.1,0,0,1,.38.07l.1.06a.52.52,0,0,1,.14.22.22.22,0,0,0,0,.16c.1.33.13.88.28,1.48a8.87,8.87,0,0,0,.51,1.58H591l0,0a6.23,6.23,0,0,1-.58-1.68,8.93,8.93,0,0,1-.18-1,1,1,0,0,0,.32.05h0a1.35,1.35,0,0,0,.94-.38l0,0,.2-.31h0a1.13,1.13,0,0,0,.18-.6,1.27,1.27,0,0,0-.15-.56,1.18,1.18,0,0,0-.7-.6h0l-.06,0,.12-.39H591c0,.11-.07.24-.11.35a1.47,1.47,0,0,1-.1.22v0h0l0,.09h0l0-.09h0l0,0a.85.85,0,0,0,.09-.22,2.42,2.42,0,0,0,.12-.35h-.44c0,.16-.11.32-.16.47v0l-.33,0h-.15a2.56,2.56,0,0,0-.66.07l-.59.08h0a6.37,6.37,0,0,1-.74.13l-.36,0h0a.44.44,0,0,1-.39-.22.37.37,0,0,1-.07-.25v-.14a.8.8,0,0,1,0-.18h-.29a.88.88,0,0,0,0,.16v.16a.73.73,0,0,0,.74.74h0l.37,0a6.83,6.83,0,0,0,.77-.12h0l.59-.09h0a3.27,3.27,0,0,1,.61-.05h.14a2.07,2.07,0,0,1,.46,0l.07,0,.32.1h0a.59.59,0,0,1,.4.33.68.68,0,0,1,.08.31.49.49,0,0,1-.1.31h0l-.17.24a.76.76,0,0,1-.57.22h0a1.07,1.07,0,0,1-.56-.19l-.06,0-.16-.15-.18-.14h0a.92.92,0,0,0-.32-.12.82.82,0,0,0-.26,0l-.27,0h-.09a3,3,0,0,0-.51.09h0l-.64.09-.49-.08h0a1.15,1.15,0,0,1-.65-.32,1.18,1.18,0,0,1-.36-.55,1.47,1.47,0,0,1-.11-.56,2.62,2.62,0,0,1,0-.37Zm-42.07,5.54-.24-.3-.53-.68a13.13,13.13,0,0,1-.8-1.05c-.13-.17-.15-.28,0-.42l.13-.11,0-.11s-.06,0-.14,0l-.59.48c-.14.12-.46.34-.72.54-.07.06-.1.09-.07.13l.11,0a1.08,1.08,0,0,1,.2-.13c.2-.09.29-.05.44.11s.23.29.81,1l.38.49Zm2.52,0a1.44,1.44,0,0,0,.17-.48,2.33,2.33,0,0,0-.68-1.83l-.41-.53c-.58-.74-.69-.88-.8-1s-.15-.28,0-.41l.12-.13,0-.12s-.06,0-.13,0l-.55.45-.57.42c-.06.06-.1.09-.06.13l.11,0,.19-.12c.18-.09.29,0,.43.12s.23.28.81,1l.48.61a2.12,2.12,0,0,1,.66,1.43,1.1,1.1,0,0,1-.16.45Zm3.78,0a24.61,24.61,0,0,1,11.45-3.58,1.18,1.18,0,0,1,1.19,1.14v2.44H563v-2.44a1.18,1.18,0,0,1,1.19-1.14,24.72,24.72,0,0,1,11.45,3.57h1a25.36,25.36,0,0,0-27.79,0Zm4.88,0v-.09h1.94v.09h.28v-.36h-2.51v.36Zm25.66,0,.67-.38h.08l.46.39H582l-.65-.55v-.05l1.42-.8h.06v.05l-.49,1.36h.76c.31-.93.61-1.83.67-2s.05-.22,0-.26-.11,0-.29.08l-3.69,2c-.29.15-.52.25-.76.09l-.15-.12h-.09s0,.06,0,.12l.17.13Z" transform="translate(-195.25 -261.05)"/><path class="cls-5" d="M536.76,284.66a2.89,2.89,0,0,0-.11.51c0,.11,0,.22,0,.31a3.64,3.64,0,0,0,.16,1,3.21,3.21,0,0,0-2.3,1.68,2.43,2.43,0,0,0-.35,1.21,4.09,4.09,0,0,0,0,.46c0,.09,0,.23.05.37h.48a2.38,2.38,0,0,1-.12-.42,3.17,3.17,0,0,1,0-.41,2,2,0,0,1,.3-1,2.8,2.8,0,0,1,2.29-1.5l.16,0,0-.15a4.53,4.53,0,0,1-.21-1.2,2.18,2.18,0,0,1,0-.25,3.89,3.89,0,0,1,.1-.56Zm.42,0a2.68,2.68,0,0,0-.11.55,2.18,2.18,0,0,0,0,.25,4.19,4.19,0,0,0,.22,1.2l0,.15-.16,0a2.8,2.8,0,0,0-2.29,1.5,2,2,0,0,0-.3,1c0,.12,0,.26,0,.41a2.38,2.38,0,0,0,.12.42h.09a3.5,3.5,0,0,1-.07-.44,3.22,3.22,0,0,1,0-.39,1.78,1.78,0,0,1,.29-.94,2.66,2.66,0,0,1,2.18-1.44.25.25,0,0,0,.2-.12.24.24,0,0,0,0-.22,4.78,4.78,0,0,1-.21-1.14,2.18,2.18,0,0,1,0-.25,3.63,3.63,0,0,1,.13-.57Zm2.06,0a1.81,1.81,0,0,0-.39,1.16,3.6,3.6,0,0,0,1,2.35,3.25,3.25,0,0,0,2.24,1.11,1.84,1.84,0,0,0,1.18-.41,2.07,2.07,0,0,0,.89-1.64,3,3,0,0,0-.45-1.45l1-1.08.24.28.15.17.13.15h0l.1.11h0c.11.13.19.23.26.3a.35.35,0,0,0,.26.13.35.35,0,0,0,.18-.06l.14-.13h0l.14-.11a7.41,7.41,0,0,1,1.3-.88h-.55a9.18,9.18,0,0,0-1.08.78h0l-.11.1h0a2.1,2.1,0,0,1-.31-.33h0l-.1-.1.54-.45h-.43a3.47,3.47,0,0,0-.29.25h0l-.22-.25h-.67l-1,1.08.05.08a2.85,2.85,0,0,1,.46,1.41,1.78,1.78,0,0,1-.78,1.42,1.6,1.6,0,0,1-1,.36,3,3,0,0,1-2-1,3.3,3.3,0,0,1-1-2.15,1.51,1.51,0,0,1,.49-1.17Zm3,0,.18.11.1.07.17-.18Zm9.69,0a33.64,33.64,0,0,0-10.07,5.41V290a9,9,0,0,1-1-.19,4.06,4.06,0,0,1-1.22-.55l-.33-.21.13.37a2.82,2.82,0,0,1,.14.69v.06h.27v-.08a4,4,0,0,0-.06-.41,3.94,3.94,0,0,0,1,.4,2.27,2.27,0,0,0,.38.09h1.42a33.53,33.53,0,0,1,11.17-5.51Zm19.8,0a33.43,33.43,0,0,1,11.17,5.51h1.41l.37-.09a3.87,3.87,0,0,0,1-.4,2.42,2.42,0,0,0,0,.41.19.19,0,0,0,0,.08h.28v-.06a3.38,3.38,0,0,1,.14-.69l.12-.37-.32.21a4,4,0,0,1-1.23.55,9,9,0,0,1-1,.19v0c-.19-.16-.39-.31-.59-.46l.11,0,.12.06.06,0,.09-.16,0,0-.11-.14v0l-.15-.05,0-.07c0-.08-.06-.13-.1-.22l-.11-.17.57-.38,0,0h.15a1.29,1.29,0,0,0,0,.25l0,.12v0s0,.13,0,.23l.05.14a.28.28,0,0,0,.15.13h.07a.81.81,0,0,0,.29-.09,5.34,5.34,0,0,0,.66-.41l.76-.55.46-.4h0l.72-.88.13-.18a.26.26,0,0,0,.17.05l.37,0a3.2,3.2,0,0,1,2.92,1.54,5.14,5.14,0,0,1,.24.52,1.42,1.42,0,0,1,.07.42,1.91,1.91,0,0,1,0,.32,3.54,3.54,0,0,1-.12.52H591a3,3,0,0,0,.1-.46,2.26,2.26,0,0,0-.32-1.5,3.62,3.62,0,0,0-2.66-1.75,3.62,3.62,0,0,1,2.66,1.75,2.32,2.32,0,0,1,.35,1.13c0,.11,0,.24,0,.37s-.06.28-.11.46h.14c0-.17.08-.32.1-.44s0-.27,0-.4a1.41,1.41,0,0,0-.1-.59c-.07-.2-.16-.38-.26-.6a3.71,3.71,0,0,0-3.31-1.83c.12-.25.19-.47.24-.58a3.27,3.27,0,0,0,.25-.92l0-.11a.06.06,0,0,1,0,0h-.42a.3.3,0,0,0,0,.1h0a2.53,2.53,0,0,1-.23.82,6,6,0,0,1-.63.94c-.07.11-.15.21-.23.32-.36.46-.69.85-.7.87l-.43.38-.76.55-.35.24-.27.14a.46.46,0,0,1-.16.06v0l0-.15a.42.42,0,0,0,0-.18h0v0a2.9,2.9,0,0,1,.16-.61l0,0a2,2,0,0,0,.15-.4l-.26-.09v0h0v0c0,.06-.08.19-.14.36l0,.07-.1.12-.08,0h0c-.12,0-.15-.08-.25-.2a1,1,0,0,1-.1-.37c0-.11,0-.29,0-.29v-.2l-.18.09h0a1.24,1.24,0,0,1-.43.1h-.08a.86.86,0,0,1-.29-.14l-.09-.09c.06,0,.18-.13.3-.24a2.3,2.3,0,0,0,.45-.48,2.76,2.76,0,0,0,.31-.78v0a.44.44,0,0,0-.09-.25.44.44,0,0,1-.08-.15,1.29,1.29,0,0,1,0-.29,1.15,1.15,0,0,1,0-.19h-.28c0,.06,0,.12,0,.19a2.2,2.2,0,0,0,0,.36,1.24,1.24,0,0,0,.11.23l.05.1h0a3,3,0,0,1-.25.64l-.16-.18-.18-.23,0-.1v-.24c0-.09,0-.15,0-.2l0-.08,0,0a.13.13,0,0,0,.08-.12c0-.13-.12-.17-.21-.18l-.13.06a1.19,1.19,0,0,0,.09-.15l0-.07h-.3a1.78,1.78,0,0,1-1.63.91,2.77,2.77,0,0,1-.8-.12h0a5.31,5.31,0,0,0-2-.53,3.48,3.48,0,0,0-.36,0h0l-.57.09-.19-.37H576l.3.58,0,.09.77-.13.32,0a5.17,5.17,0,0,1,1.91.51h0a2.73,2.73,0,0,0,.89.15,2.33,2.33,0,0,0,.7-.11l0,.13a.32.32,0,0,0,.32.21h0a.32.32,0,0,0,.21-.08l.09,0H582l.19.18.21.21a2,2,0,0,1-.26.25l-.21.17a.67.67,0,0,0-.15.14h0l0,.11a.36.36,0,0,0,.07.19,1.2,1.2,0,0,0,.53.33l.15,0a2,2,0,0,0,.4-.08s0,.08,0,.11a1.11,1.11,0,0,0,.14.49h0a.61.61,0,0,0,.07.1l-.51.34a1.23,1.23,0,0,0-.26-.12,1.11,1.11,0,0,0-.26-.07l-.11-.07h0l-.17-.07-.1,0a.25.25,0,0,0-.13.22l0,.11a34,34,0,0,0-8.07-4Zm-33.11,5.51a.72.72,0,0,0-.29-.48l-.14-.09a.84.84,0,0,0,.28-.67v-.06a.74.74,0,0,0-.07-.38.93.93,0,0,0-.48-.55.91.91,0,0,0-.44-.12,1.87,1.87,0,0,0-.32,0,1.16,1.16,0,0,0-.64.37.78.78,0,0,0-.19.34,1.54,1.54,0,0,1-.11.3l.25.12a2,2,0,0,0,.12-.34.57.57,0,0,1,.14-.23.82.82,0,0,1,.49-.29l.26,0a.65.65,0,0,1,.31.08.68.68,0,0,1,.35.41.57.57,0,0,1,.06.28v.05a.54.54,0,0,1-.08.33.47.47,0,0,1-.42.26h0l0,.28h.09a.48.48,0,0,1,.35.12.54.54,0,0,1,.18.26Zm7.91,0-.25-.09c-.14-.05-.23-.1-.29-.06s0,.08,0,.16Zm4,0-.64-1.29c-.15-.3-.16-.45,0-.56l.16-.1c.07,0,.09-.07.07-.11s-.08,0-.15,0l-.53.29-.68.32c-.08.05-.13.08-.12.13s.06,0,.12,0a1.43,1.43,0,0,1,.31-.12c.16,0,.27.07.44.41l.55,1Zm3.31,0c0-.08,0-.17-.08-.26l-.34-1c-.29-.89-.34-1.06-.4-1.25s0-.33.12-.41l.17-.07.07-.09s-.06,0-.14,0l-.71.25-.77.23c-.1,0-.14.06-.13.1l.12,0a.58.58,0,0,1,.21,0c.14,0,.24.07.31.27s.13.35.42,1.24l.33,1s0,0,0,0Zm3.92,0,.43-1.78c.19-.81.3-1.17.44-1.78.09-.42.17-.54.24-.61a.46.46,0,0,1,.29-.12s.09,0,.08-.08,0,0-.13,0-.48.11-.58.12-.33,0-.64.1c-.11,0-.17,0-.16.09l.11,0a2.08,2.08,0,0,1,.25,0l.1.1a.94.94,0,0,1,0,.23c-.07.43-.53,2.53-.67,3.25h0l-1.54-2.59a1.89,1.89,0,0,1-.22-.44l0-.14a.41.41,0,0,1,.22-.09l.09-.07s-.08,0-.15,0c-.3.05-.59.13-.74.15s-.58.08-.9.14c-.08,0-.16,0-.14.08l.08.05a.58.58,0,0,1,.24,0c.23,0,.35.07.54.37l1.95,3.07Zm5.17,0a5.26,5.26,0,0,0,.06-.64c0-.06,0-.12,0-.11s-.06,0-.07.09c0,.25-.11.39-.27.46a1.47,1.47,0,0,1-.58.09c-.63,0-.74-.08-.75-.51,0-.18,0-.75,0-1v-.49l0-.06c.15,0,.76,0,.88,0s.32.12.35.24,0,.16,0,.22l.06.06.05-.13s0-.28,0-.4c0-.32,0-.43,0-.47l0,0-.09.08c-.06.07-.15.08-.3.1l-1,0,0-.07,0-1.56,0-.07h.88c.31,0,.37.11.42.21a.79.79,0,0,1,0,.23l.06.08.06-.06c0-.08,0-.35,0-.41a2.83,2.83,0,0,1,0-.4l0-.06-.09,0-.27,0-1.54,0h-.9c-.09,0-.14,0-.13.06s0,0,.1,0a.58.58,0,0,1,.24,0c.21,0,.26.13.27.34s0,.38,0,1.31l0,1.1c0,.56,0,1.05,0,1.31a.85.85,0,0,1,0,.25Zm2.35,0a.65.65,0,0,1,0-.2c0-.26.06-.75.13-1.32v-.08l.06-.05.53.08.11.06c.07.11.3.55.5.92s.25.43.35.59h.83c-.31-.42-.65-1-1.11-1.74a1.72,1.72,0,0,0,1-1.28,1.07,1.07,0,0,0-.31-.9,2,2,0,0,0-1.1-.39c-.19,0-.66-.07-.87-.09l-.84-.13c-.09,0-.14,0-.14.05s0,.06.1.06l.24.05c.19.06.23.17.22.38s0,.38-.15,1.3l-.13,1.09a11.48,11.48,0,0,1-.2,1.3c0,.15-.07.26-.15.3Zm3.72,0a1.42,1.42,0,0,1,0-.31l0-.12s-.09.05-.12.14,0,.15-.09.29Zm2.44,0a2.16,2.16,0,0,0-.62-1.56l-.13-.17c-.4-.51-.48-.76-.41-1a.66.66,0,0,1,.88-.43.76.76,0,0,1,.57.47.67.67,0,0,1,.05.44q0,.11,0,.12s.08,0,.12-.16c.12-.47.19-.64.21-.71L572,287a3.11,3.11,0,0,0-.77-.31,1.25,1.25,0,0,0-1.68.75,1.84,1.84,0,0,0,.5,1.66l.22.29a1.69,1.69,0,0,1,.36.74Zm2.6,0,.18-.45c.34-.89.4-1,.48-1.23s.18-.27.34-.24a.78.78,0,0,1,.18.05l.12,0s0-.06-.11-.09l-.7-.25-.75-.31c-.09,0-.15,0-.16,0l.07.09a.75.75,0,0,1,.2.1c.11.08.14.2.07.4s-.12.35-.45,1.23l-.29.73Zm3.86,0,.11-.17.13-.07a2,2,0,0,1,.36.18l.1.06h.54l-.4-.26c-.32-.19-.66-.38-.82-.49l-.75-.48c-.08-.06-.12-.07-.14,0l.06.11a1.15,1.15,0,0,1,.2.14c.15.14.13.25,0,.44s-.13.23-.34.57Zm9.28,0a.54.54,0,0,1,.18-.26.47.47,0,0,1,.35-.12h.1v-.28a.49.49,0,0,1-.44-.26h0a.62.62,0,0,1-.07-.33v-.05a.69.69,0,0,1,0-.28.67.67,0,0,1,.36-.41.65.65,0,0,1,.31-.08l.25,0a.85.85,0,0,1,.5.29.67.67,0,0,1,.13.23c0,.1.06.2.12.34l.25-.12a1.51,1.51,0,0,1-.1-.3,1.07,1.07,0,0,0-.19-.34,1.2,1.2,0,0,0-.64-.37,1.87,1.87,0,0,0-.32,0,.91.91,0,0,0-.44.12,1,1,0,0,0-.49.55,1,1,0,0,0-.07.38v.06a.78.78,0,0,0,.11.46.68.68,0,0,0,.17.21.67.67,0,0,0-.14.09.78.78,0,0,0-.3.48Zm-5.65-4.37h0l0,0a.35.35,0,0,0,.14.06l.14,0a.4.4,0,0,0,.2-.07h0l.09-.12v0h0a.5.5,0,0,0,0-.17v-.05a1,1,0,0,0,0-.19v-.08l.14-.15h0l.06,0v0a.2.2,0,0,0-.1.08l0,.15c0,.08,0,.14,0,.2v.19l-.06.14v0l.24.29.18.21v0l-.21-.21-.21-.2,0,0h-.37l-.13,0h0l0,0a.16.16,0,0,1-.15.06h-.09a.39.39,0,0,0,.21-.13m-.27,0h-.09l-.12,0a2,2,0,0,0,.93-.61v.08c0,.08,0,.12,0,.18v.18l-.07.09-.11,0h-.11a.31.31,0,0,1-.14-.07l-.06-.05-.1.14a.21.21,0,0,1-.16.08m.88-.9h0Zm-.39,3.77h.25l.21,0a1.11,1.11,0,0,1,.3.17l.11.09.08.12a1.17,1.17,0,0,1,.12.25l.08.13c-.38-.28-.76-.55-1.15-.81Zm1.06.34h0l-.09-.12h0l-.11-.11a1.16,1.16,0,0,0-.35-.18,1.05,1.05,0,0,0-.24-.06h-.22l.06-.11h0l.1,0,.13.09h0l.25.05a.94.94,0,0,1,.26.14l0,0,.6-.41.07,0-.63.41.05.06.14.21a1.33,1.33,0,0,1,.09.21h0l.07.1h0l.15.06,0,.05h0l-.08,0h0l-.16,0a.69.69,0,0,1-.1-.17c0-.09-.07-.16-.14-.27m5.21-2.29a3.69,3.69,0,0,0-.58,0h0a3.69,3.69,0,0,1,.58,0m-46.75-1.14a.79.79,0,0,0-.53.18.74.74,0,0,0-.26.61,1.44,1.44,0,0,0,.41.95,1.5,1.5,0,0,0,1.07.52.76.76,0,0,0,.79-.78,1.4,1.4,0,0,0-.41-.95,1.49,1.49,0,0,0-1.07-.53m1,1.87a.55.55,0,0,1-.34.11,1.19,1.19,0,0,1-.87-.43,1.17,1.17,0,0,1-.34-.76.49.49,0,0,1,.17-.4.51.51,0,0,1,.35-.11,1.25,1.25,0,0,1,.86.43,1.17,1.17,0,0,1,.34.77.48.48,0,0,1-.17.39m23.16.62.23-1.87.07-.08a1.45,1.45,0,0,1,.33,0,1,1,0,0,1,.8,1.24,1.07,1.07,0,0,1-.48.88.6.6,0,0,1-.45.05,1.66,1.66,0,0,1-.45-.12c-.05,0-.06-.05-.05-.12" transform="translate(-195.25 -261.05)"/><path class="cls-5" d="M540.81,279.12a1.23,1.23,0,0,0-.07.39.93.93,0,0,0,.16.52h0s.09.14.31.45l-5.09.27a.29.29,0,0,0-.2.09.35.35,0,0,0-.07.2l.17,3.07a.28.28,0,0,0,.28.26h.55l-.09.29h.41l.09-.3h0c0-.12.07-.2.1-.27l0,0-.25-.12.25.12,0,0c0,.07-.06.15-.1.27h0l-.09.3h.16a4.41,4.41,0,0,1,.19-.46.25.25,0,0,0,0-.12l.62,0,0-.7,1.28-.07,0,.55V284l1.14-.07v-.14c0-.63-.06-1-.07-1.25l2.43-.13.12.16h0l.53.69-1.16,1.24a3.13,3.13,0,0,0-1.65-.52,1.94,1.94,0,0,0-1.22.4,2.16,2.16,0,0,0-.31.29h.38a.39.39,0,0,1,.1-.08,1.74,1.74,0,0,1,1-.35,2.79,2.79,0,0,1,1.42.43h.45l1.12-1.2.81,1h0l-.16.17h.67l-.13-.15h0l.42-.34a9.84,9.84,0,0,1,1-.66l.46-.26.1-.05,0-.11,0-.14a.73.73,0,0,1,.71-.72.75.75,0,0,1,.56.28l.06.08.1,0,.56-.2c.32-.1.72-.23,1.06-.31H550l.46-.09h0V282l.08.48a12.19,12.19,0,0,0-2.8.8,9.37,9.37,0,0,0-2.12,1.37H546a8.32,8.32,0,0,1,1.81-1.13,9.89,9.89,0,0,1,1.84-.6c.39-.09.71-.15.88-.18a.59.59,0,0,0,0,.14h0c0,.22,0,.37,0,.44v0l-.17,0h0a9.16,9.16,0,0,0-2.35.73,10.81,10.81,0,0,0-1,.54h.55c.17-.1.36-.19.56-.29a10.61,10.61,0,0,1,1.6-.57l.49-.11.18,0a.67.67,0,0,0,.28-.06l.1-.13,0-.14a4.38,4.38,0,0,0-.06-.48h0a.78.78,0,0,0,0-.14h0c0-.19-.06-.43-.11-.71l1.79-.09a3.12,3.12,0,0,0,.83,1.27,1.88,1.88,0,0,0,1.24.43,2.41,2.41,0,0,0,.59-.06,1.86,1.86,0,0,0,1.29-1,3.26,3.26,0,0,0,.4-1.63c0-.16,0-.32,0-.48a4.31,4.31,0,0,0-.41-1.35h-.31a3.66,3.66,0,0,1,.44,1.38c0,.16,0,.31,0,.45a3.05,3.05,0,0,1-.36,1.5,1.6,1.6,0,0,1-1.11.82,2.39,2.39,0,0,1-.53.06,1.62,1.62,0,0,1-1.06-.38,2.92,2.92,0,0,1-.79-1.24l0-.1h-.1l-1.93.1v0l0-.06c-.06-.36-.14-.76-.23-1.2l2.2-.11v-.13a3,3,0,0,1,.29-1.07h-.3a2.93,2.93,0,0,0-.25.93l-2,.11c0-.17-.07-.35-.11-.52l-.09-.41h0a.43.43,0,0,0,0-.11h-.29a.29.29,0,0,1,0,.09l0,.06h-.09l-.44.07c-.18,0-.38.06-.58.11a11.59,11.59,0,0,0-1.58.47l-.08-.07a1,1,0,0,0-.24-.15.87.87,0,0,0-.79,0,1,1,0,0,0-.56.69,1.49,1.49,0,0,0,0,.21v.07a0,0,0,0,0,0,0,10,10,0,0,0-1.39.9c-.19.15-.38.3-.55.46l-.32.28-.18-.25-.6-.8.53-.49.34-.29a11.34,11.34,0,0,1,2-1.41h-.56a12.4,12.4,0,0,0-1.93,1.43l-.32.29-.26.24-.16-.21-.15-.21.07-.06c.28-.27.81-.72,1.18-1s.46-.33.68-.47h-.49l-.36.25c-.41.31-1,.8-1.24,1.06h0c-.29-.39-.49-.67-.49-.68h0a.65.65,0,0,1-.11-.35.59.59,0,0,1,.07-.29Zm18.65,0h0l.1.52a.58.58,0,0,1-.2.43.55.55,0,0,1-.38.13.73.73,0,0,1-.71-.56l-.07-.09h-.1l-.69.21a.13.13,0,0,0-.1.16,4.52,4.52,0,0,1,.22,1v.13a2.68,2.68,0,0,1-.15.89l0,.13.11.06a6.26,6.26,0,0,0,2.45-.43,5.89,5.89,0,0,0,1-.51,8.32,8.32,0,0,0,.85-.56l.06-.1,0-.12a7.18,7.18,0,0,1-.78-.78,6.67,6.67,0,0,1-.46-.54h-.35c.2.26.35.45.6.73a8.85,8.85,0,0,0,.67.69,4.53,4.53,0,0,1-.69.43,5.12,5.12,0,0,1-1,.5,5.64,5.64,0,0,1-2.17.4,3.13,3.13,0,0,0,.11-.79v-.15a4.88,4.88,0,0,0-.18-.95l.43-.13a.87.87,0,0,0,.29.41,1,1,0,0,0,.64.23.83.83,0,0,0,.56-.21h0a.8.8,0,0,0,.29-.63v0l-.08-.43.21-.07Zm1.84,0a6.45,6.45,0,0,0,1.31,1.17h.17a5.23,5.23,0,0,0,1.18-1.17h-.34a4.84,4.84,0,0,1-.93.88,6,6,0,0,1-1-.88Zm3.43,0c-.14.18-.27.34-.46.55h0a8.2,8.2,0,0,1-.78.78l0,.12.06.1a9.59,9.59,0,0,0,.85.56,6.25,6.25,0,0,0,1,.51,6.33,6.33,0,0,0,2.45.43l.12-.06,0-.13a2.68,2.68,0,0,1-.15-.89V281a5.18,5.18,0,0,1,.21-1,.14.14,0,0,0-.09-.16l-.7-.21h-.1l-.07.09a.7.7,0,0,1-.24.39.75.75,0,0,1-.46.17.53.53,0,0,1-.38-.13.55.55,0,0,1-.21-.42l.1-.53v0h-.5l.21.07-.08.43v0a.77.77,0,0,0,.29.63.84.84,0,0,0,.57.21,1,1,0,0,0,.64-.23.92.92,0,0,0,.28-.41l.44.14a4.55,4.55,0,0,0-.19.94v.15a2.74,2.74,0,0,0,.11.79,5.57,5.57,0,0,1-2.17-.4,5.19,5.19,0,0,1-1-.5,5.78,5.78,0,0,1-.69-.43,8.85,8.85,0,0,0,.67-.69,6.42,6.42,0,0,0,.6-.73Zm3.65,0a.56.56,0,0,0-.2.41v0a.5.5,0,0,0,.06.24l.08.14.27-.18a2.85,2.85,0,0,1,.12.29,1.48,1.48,0,0,1,.15.43c0,.06,0,.11,0,.15a1.62,1.62,0,0,1,0,.18h0a.6.6,0,0,1-.16.35l-.08.09.09.09a6.08,6.08,0,0,1,.69.83c.13.18.2.29.31.46l0,.26-.06.6v.11c-.54-.11-1.08-.21-1.63-.29a0,0,0,0,0,0,0,.12.12,0,0,0-.09-.16,24.53,24.53,0,0,1-2.75-.9c-.62-.24-1-.38-1.55-.66h-.13l-.83.47-.83-.47h-.13c-.6.28-.93.42-1.55.66a24.53,24.53,0,0,1-2.75.9.13.13,0,0,0-.1.16s0,0,0,0a34.14,34.14,0,0,0-5.47,1.34h1.86a33.59,33.59,0,0,1,17.94,0h1.87c-.93-.32-1.87-.59-2.84-.82l0-.51v-.05l-.29-.41c-.1-.31-.18-.5-.31-.81l-.38-.73a1.82,1.82,0,0,0,.25-.26,1.46,1.46,0,0,0,.15-.28,1.88,1.88,0,0,0,.14-.42l.06.09a1,1,0,0,1,.17.58v.11l.05,0a4.86,4.86,0,0,0,.41.38c.17.14.28.22.46.35h0l.33.27.07.05.39-.17,1.19.25a2.77,2.77,0,0,0,.85.89h0a4.13,4.13,0,0,1,1.74,1.44h.32l-.07-.12h0a4.45,4.45,0,0,0-1.85-1.56,2.15,2.15,0,0,1-1-1.71,1.81,1.81,0,0,1,.17-.74,4.34,4.34,0,0,1,1-1h0l.36-.36h-.79l.06.32a3.69,3.69,0,0,0-.82,1h0c0,.12-.09.25-.13.37l-.24.29-.06.06a1.22,1.22,0,0,1-.5.36h-.11a.8.8,0,0,1-.23,0H572l-.59-.48c0-.07,0-.15.08-.23a1.44,1.44,0,0,0,.08-.38,3.79,3.79,0,0,0,0-.39,1,1,0,0,0,0-.2l0-.1,0-.06h0l.17-.11a4,4,0,0,0,.46-.38h-.41l-.21.15-.3.19-.09.06,0,.1a.3.3,0,0,0,.1.13l0,0h0l0,.08h0a1.17,1.17,0,0,1,0,.23c0,.12,0,.24,0,.28a1,1,0,0,1-.07.3c0,.12-.08.24-.1.32l0,.08.77.65h0a1.92,1.92,0,0,0,.41,0l.16,0a1.14,1.14,0,0,0,.47-.26v.21l.1.23-.73-.15h0l-.33.13-.28-.22h0a9.73,9.73,0,0,1-.8-.65h0a1.26,1.26,0,0,0-.21-.72,1.65,1.65,0,0,0-.33-.37l-.22-.16v.28a1.15,1.15,0,0,1-.13.6c-.06.14-.07.19-.11.23a4,4,0,0,1-.31.31l-.08.07.05.1a8.73,8.73,0,0,1,.42.8,8.09,8.09,0,0,1,.33.81v0l.25.36v.16l-.48-.13,0-.5v0l-.07-.32v0c-.12-.2-.2-.32-.33-.51h0a7.2,7.2,0,0,0-.64-.78.88.88,0,0,0,.15-.37.6.6,0,0,0,0-.23v-.18h0a2.18,2.18,0,0,0-.17-.51,4.54,4.54,0,0,0-.21-.45l-.07-.14-.22.15a.24.24,0,0,1,.2-.22l.08,0,0-.08a.14.14,0,0,0,0-.06Zm8,0,.49,1.3-1.38,1.77.07.11h0l2.32-.05,1.34,1.85h.11l.6-2.19,1.48-.42,1,.47a4.15,4.15,0,0,0-.25,1.24v0a4.25,4.25,0,0,1-.24,1.39h0l0,0h.3a1,1,0,0,0,.07-.21.36.36,0,0,0,.12.08.74.74,0,0,0,.25,0h0s0,.06,0,.1h.28s0-.07,0-.1a1.09,1.09,0,0,0,0-.12l0-.19-.19,0h-.15l-.16,0h0s-.07,0-.08-.12l0-.08h0l.06-.6.08-.81h0a5.11,5.11,0,0,1,.2-.65,3.88,3.88,0,0,1,.35-.58l.27-.35s.11-.11.26-.23a1.52,1.52,0,0,1,.27-.22,2.59,2.59,0,0,1,.61-.33l.14-.05a.27.27,0,0,1,.1.16c0,.07,0,.16,0,.28a1.83,1.83,0,0,1,0,.21,4.09,4.09,0,0,1,0,.41,3.13,3.13,0,0,1-.2.66,1.11,1.11,0,0,1-.07.16c-.05.13-.11.25-.11.25l-.15.31.54-.2.08,0,.08,0,.1,0,.09,0v-.21l0,0h0l0,0h0l.07,0h0l.08,0,0,0h0l.07.05.07,0,.1,0,.08,0,.07,0h0l.15-.06,0-.14a.54.54,0,0,0-.11-.27,1,1,0,0,0-.2-.21.9.9,0,0,0-.23-.08l-.08,0h0l.07-.12,0,0h.2l.11-.13h0l0,0L586,281h0l.09,0h.15l.12,0,.13.12.06.07,0,0,.05.08.34-.09.21.6-.15.05-.1,0v.16l0,.11a.33.33,0,0,1-.12.19l-.12.09-.08,0,0,0-.18.22-.08.09.09.09,0,0,.11.21c0,.06,0,.07-.08.17l-.13.12-.1.06-.11.07.22.47.06.14.14-.07a.67.67,0,0,1,.19-.11l.28-.12.09,0a.81.81,0,0,1,.22-.06h0a.35.35,0,0,1,.22.09.44.44,0,0,1,.17.26.46.46,0,0,1,.06.25v.07a1.35,1.35,0,0,1,0,.18h.42a.79.79,0,0,0,0-.17v-.08a1,1,0,0,0-.09-.41,1,1,0,0,0-.28-.41h0a1,1,0,0,0-.65-.24v0a.26.26,0,0,0,0-.28l0-.09.15-.14,0-.05.14-.2.45-.17A.28.28,0,0,0,588,282l-.49-1.46a.23.23,0,0,0-.14-.15.34.34,0,0,0-.22,0l-.35.13-.28-.16-.14,0h-.65l-.14,0-.45.25v0a2.19,2.19,0,0,0,0-.31.61.61,0,0,0,0-.12.24.24,0,0,0,0-.2l-.23-.85h-.42v.05l.18.66,0,.11-.09,0h0l-.08,0a3.56,3.56,0,0,0-.65.32,3.7,3.7,0,0,0-1.28,1.4l-.69-.34.37-.1,0-.1h0l-1.94-1.27v-.78H580v.78l-.61.29h0l-.15.07h0l-.15.08h0l-.09,0,0-.07h0l.06-.12h0l.06-.12h0l.47-1h-.28l-.43.84h0l-.06.11h0l-.06.13h0l-.06.12,0-.16h0l0-.17,0-.16h0l-.09-.66.08-.06H578l.28.09.09.49h0l0,.16h0l0,.17h0l.06.29-.52-.51h0l-.3-.3h0l-.29-.3h0l-.09-.09h-.38l.33.32h0l1.1,1-1.17-.17-.44-1.11h0l0-.08Zm2.67,1.72,1.48.22h0l.45.07h0l.44.06h0l-.2.05h0l-.2.06h0l-1.17.31Zm.6.88-.39,1.51-.39-2.23Zm1.09-.86h0l-.41-.06h0l-.43-.05h0l-.81-.11.28-.16h0l.15-.08.14-.08h0l.39-.21v0l1.38.82Zm-2.09.2.37,2.2-.89-1.19Zm-.27-.13-.49,1-1.58.05Zm-2.14.79.9-1.15,1.21.16Zm-26.3,0-.13,0a9.92,9.92,0,0,0-1.1.31l-.47.17-.15-.14a1,1,0,0,0-.56-.18,1,1,0,0,0-.3.05l-.11.05-.23.14a1,1,0,0,0-.32.51,1.07,1.07,0,0,0,0,.25.38.38,0,0,0,0,.1c-.12.06-.37.2-.65.38s-.49.32-.73.51l-.43.36v0c-.25-.3-.53-.64-.82-1l0,0,.42-.38a7.89,7.89,0,0,1,.67-.55,3.38,3.38,0,0,1,.41-.31,8.78,8.78,0,0,1,1.33-.77,8.67,8.67,0,0,1,1.3-.46l.5-.13.46-.11h0l.82-.15.23,0,0,.12c.09.44.17.85.24,1.22a4,4,0,0,0-.4.08m-1-1.52-.13,0-.49.11-.77.21a7.8,7.8,0,0,0-1,.38,8.71,8.71,0,0,0-1.14.63c-.21.14-.41.28-.59.42s-.26.2-.38.3l-.43.37-.35.32h0l-.33-.42h0l.26-.23.34-.29.28-.23a10.58,10.58,0,0,1,1-.64l.47-.27,0,0,.06,0v0l0-.07v-.15a.54.54,0,0,1,0-.22.74.74,0,0,1,.37-.43.8.8,0,0,1,.3-.06l.17,0a.84.84,0,0,1,.27.13l.12.12.06.09.1,0a4,4,0,0,1,.51-.19,9.22,9.22,0,0,1,1.11-.32l.21,0,.45-.08.45-.06h0l.06.28,0,.23-1,.18m-12.46,3.59-.14-2.52,5.32-.29a.33.33,0,0,0,.14,0l.85,1.15-2.52.13v.14s0,.43.07,1.26l-.6,0,0-.54V283l-1.84.09,0,.7-.54,0h-.76Zm30.58-.64a34.1,34.1,0,0,0-4.43-.29,34.87,34.87,0,0,0-4.48.29c.7-.2,1.25-.39,2.06-.7.59-.23.94-.38,1.5-.63l.84.47h.13l.85-.47c.56.25.9.4,1.5.63.79.31,1.34.5,2,.7M554,281.73a.88.88,0,0,0,.64.33l.15,0a.85.85,0,0,0,.56-.42,1.6,1.6,0,0,0,.19-.77,2.45,2.45,0,0,0,0-.27,1.51,1.51,0,0,0-.34-.78.84.84,0,0,0-.64-.32h-.15a.85.85,0,0,0-.55.42,1.52,1.52,0,0,0-.2.77,2.45,2.45,0,0,0,0,.27,1.59,1.59,0,0,0,.34.78m.07-1.68a.62.62,0,0,1,.38-.29h.09a.6.6,0,0,1,.43.23,1.25,1.25,0,0,1,.27.64.93.93,0,0,1,0,.23,1.16,1.16,0,0,1-.16.62.56.56,0,0,1-.37.3h-.09a.58.58,0,0,1-.43-.23,1.22,1.22,0,0,1-.28-.64c0-.08,0-.15,0-.23a1.36,1.36,0,0,1,.15-.63m32.28,1.16-.25.2h.44Z" transform="translate(-195.25 -261.05)"/><path class="cls-5" d="M541.3,279.12a1.83,1.83,0,0,1,.35-.45h0a14.12,14.12,0,0,1,1.58-1.27h0a.87.87,0,0,0,.39-.69.55.55,0,0,0-.07-.3.94.94,0,0,1-.08-.36.85.85,0,0,1,.5-.77.73.73,0,0,1,.35-.09.88.88,0,0,1,.78.52.69.69,0,0,0,.65.4,1.54,1.54,0,0,0,.3,0,12.79,12.79,0,0,1,2.1-.39h0l.22,0a.83.83,0,0,1,.46.11.44.44,0,0,1,.24.26l0,.11h0s0,.16.08.35.07.28.12.45h0c-.36,0-1.07.16-1.6.27a11.51,11.51,0,0,0-1.57.48,1,1,0,0,0-1.12-.22,1,1,0,0,0-.57.9v.11c-.17.1-.6.35-1,.64h.49l.27-.16c.28-.18.48-.29.48-.29l.08-.05v-.1l0-.15a.72.72,0,0,1,.41-.65.8.8,0,0,1,.3-.06.72.72,0,0,1,.56.28l.07.08.09,0,.53-.2a9.5,9.5,0,0,1,1.09-.3c.43-.1,1-.19,1.4-.25l.21,0h0l0,.16.05.19,0,.17-.46,0-.44.06a11.31,11.31,0,0,0-3,.87c-.27.12-.52.26-.77.4h.56l.33-.16a10.53,10.53,0,0,1,2.6-.79l.44-.07c.32-.05.6-.08.83-.1l.21.88c0,.08,0,.16.05.24h.29a.94.94,0,0,0,0-.16l1.85-2,.92.85.1.1.78-.84-.5-.46.87-.95.41.39.1.09,1.12-1.21a.26.26,0,0,0,.33-.3,6.73,6.73,0,0,1-.05-.74,2.23,2.23,0,0,1,2.36-2.49,3,3,0,0,1,1.6.38l.28.22.21.29a3.84,3.84,0,0,1,.22.32,2.15,2.15,0,0,1,.16.31h0a.3.3,0,0,0,.17.16h3.36v0h0v0h-.15a.28.28,0,0,0,.36-.15,3.3,3.3,0,0,1,.34-.65l.08-.12a2.11,2.11,0,0,1,.45-.39,3,3,0,0,1,1.6-.38,2.35,2.35,0,0,1,1.61.58,2.43,2.43,0,0,1,.73,1.9c0,.18,0,.38,0,.58a.26.26,0,0,0,.14.28.27.27,0,0,0,.32,0l.81-.73,0,0-.12.16-.12.16.48.14H571a2.72,2.72,0,0,0,.23.57h0a2.82,2.82,0,0,0,.31.53l.06.14c-.05.09-.08.16-.13.27s-.08.18-.12.29c-.32.24-.52.4-.83.66l-.67.61a2.07,2.07,0,0,0-.81.6,2,2,0,0,0-.49.84.38.38,0,0,0-.15.09h.41a1.84,1.84,0,0,1,.43-.75,1.93,1.93,0,0,1,.75-.54h0c.26-.25.41-.38.68-.62s.5-.42.84-.67l0,0v0a3.09,3.09,0,0,0,.14-.32,3.13,3.13,0,0,0,.15-.32l0-.05-.1-.26h0v0a3.4,3.4,0,0,1-.31-.52,3.29,3.29,0,0,1-.23-.62l0-.09-.23,0-.08,0h0l.06-.06.07-.09-.18-.24.56-.49,0,0,.24.22,0,0h.18l.2,0h0l.09.16,0,0,.67.27v.22l-.19,0-.38.07-.18,0,.09.17a1.07,1.07,0,0,0,.16.25,1.89,1.89,0,0,0,.4.36,3,3,0,0,0,.57.35l.07,0,.27-.2.28-.08h.43l.49.2a1.48,1.48,0,0,1,.31.58,1.42,1.42,0,0,1,.08.48v.1l-.13.25-.16-.29.09-.2v-.06a1.12,1.12,0,0,0,0-.24.64.64,0,0,0-.63-.58h0a.71.71,0,0,0-.32.1l-.15.09h0l-.34.22-.07,0V276a1.79,1.79,0,0,1,0,.21,2.24,2.24,0,0,1,0,.34,1.62,1.62,0,0,1-.23.56l-.17.24.3,0a3.36,3.36,0,0,1,.58-.07l.13,0,.13.11.21,1.46-.11.13-.1-.5h0a2.09,2.09,0,0,1,0-.24v-.23a.57.57,0,0,0-.2-.49.2.2,0,0,0-.16-.05,1.57,1.57,0,0,0-.4.08c-.35.08-.58.27-.75.29h-.06l0,0a4,4,0,0,1-.69.84,4.35,4.35,0,0,1-.35.31H572a1.59,1.59,0,0,0,.13-.13,3.91,3.91,0,0,0,.7-.83c.26-.07.45-.23.71-.28a1.69,1.69,0,0,1,.34-.07c.08.09.08.12.08.26v.23c0,.08,0,.18,0,.28h0l.11.53h.79A.8.8,0,0,0,575,279a2.12,2.12,0,0,0,.34-.48l1,.51,0,.1h.32l0-.11h0l-.06-.18.3.29h.39l-.4-.39,1.13.39h.64l1.17-1-.48,1h.28l.38-.75v.75h.29v-1.54l-.09-.06h0L578.43,279l-2.24-.78-.08.1h0l.13.34-.77-.37a3.64,3.64,0,0,0,.33-1.53,3.21,3.21,0,0,0-.19-1.12l-.06-.12.74-.32.14-.05.11.1a2.57,2.57,0,0,0,.76.51,3.07,3.07,0,0,0,1.23.18,3.19,3.19,0,0,1,1,.29h0a.43.43,0,0,0,.19,0A.28.28,0,0,0,580,276h0a1,1,0,0,0,0-.21h0a.83.83,0,0,1,.86-.66,1.13,1.13,0,0,1,.44.1,1,1,0,0,1,.53.84.74.74,0,0,1-.2.51,0,0,0,0,1,0,0h0l-.15.15a.29.29,0,0,0-.07.18.37.37,0,0,0,.22.31h0a3.16,3.16,0,0,1,.85.61,3.19,3.19,0,0,0,.89.86,3,3,0,0,0,.88.28l.14,0,0,.1h.42l-.07-.29a.28.28,0,0,0-.25-.21h0a2.77,2.77,0,0,1-.93-.27,1.34,1.34,0,0,1-.42-.33c-.11-.13-.21-.28-.37-.45a3.64,3.64,0,0,0-.89-.65l0,0a1.16,1.16,0,0,0,.32-.82,1.35,1.35,0,0,0-.77-1.21,1.43,1.43,0,0,0-.61-.14,1.37,1.37,0,0,0-.83.27,1.15,1.15,0,0,0-.45.76v0a3.16,3.16,0,0,0-1.07-.29h0a5.69,5.69,0,0,0-.57,0,1.46,1.46,0,0,1-.53-.13,2.09,2.09,0,0,1-.55-.36,1,1,0,0,1-.18-.17l-.05,0v0a.31.31,0,0,0-.32-.07l-.89.39-.8-.53-.13-.05-.41,0H574l-.37.11-.1.05-.15.11,0,0,.11-.12a.29.29,0,0,0,.08-.19v-.26l0-.08-.1-.33a.3.3,0,0,0-.16-.17l-.66-.26-.08-.13a.24.24,0,0,0-.18-.13l-.28-.06H572l-.33-.31a.28.28,0,0,0-.37,0L570,273.86a3,3,0,0,0-.91-2.27,2.94,2.94,0,0,0-2-.72,4.75,4.75,0,0,0-1,.09c.11-.15.19-.27.3-.45a4.86,4.86,0,0,0,.68-1.39h.35a.28.28,0,0,0,.2-.08.3.3,0,0,0,.08-.2v-1.41a.28.28,0,0,0-.28-.27h-1.22a2.61,2.61,0,0,0-.57-1.24,2.55,2.55,0,0,0-1.76-.88v-.78h.89a.24.24,0,0,0,.19-.08A.26.26,0,0,0,565,264v-1.45a.3.3,0,0,0-.08-.2.27.27,0,0,0-.19-.08h-.89v-.93a.21.21,0,0,0-.08-.19.25.25,0,0,0-.2-.09h-1.77a.25.25,0,0,0-.2.09.22.22,0,0,0-.09.19v.94h-.89a.3.3,0,0,0-.2.08.26.26,0,0,0-.07.19V264a.27.27,0,0,0,.07.2.3.3,0,0,0,.2.08h.89v.81a2.69,2.69,0,0,0-1.67.87,2.59,2.59,0,0,0-.66,1.22h-1.29a.27.27,0,0,0-.27.27v1.41a.3.3,0,0,0,.08.2.29.29,0,0,0,.19.08h.39a4.93,4.93,0,0,0,.68,1.38h0c.12.19.2.31.31.46a4.56,4.56,0,0,0-.92-.09,2.77,2.77,0,0,0-2.91,3v.1l-1.67-1.53a.27.27,0,0,0-.39,0l-3.65,3.91-.09-.4h0a.92.92,0,0,0-.52-.61,1.67,1.67,0,0,0-.71-.14l-.33,0a13.92,13.92,0,0,0-2.16.4h0a.65.65,0,0,1-.19,0c-.16,0-.22,0-.28-.16a1.29,1.29,0,0,0-1.17-.74,1.34,1.34,0,0,0-.51.11,1.26,1.26,0,0,0-.73,1.15,1.24,1.24,0,0,0,.11.54l0,.13c0,.1-.05.21-.22.35h0a15.79,15.79,0,0,0-1.61,1.31,2.25,2.25,0,0,0-.43.48,1.83,1.83,0,0,0-.14.28Zm11.62,0,.14-.25a1.81,1.81,0,0,1,1.12-.84l.33,0a1.76,1.76,0,0,1,1.38.78,3.78,3.78,0,0,1,.22.33h.31a3.3,3.3,0,0,0-.31-.51,2,2,0,0,0-1.6-.89,1.81,1.81,0,0,0-.39,0,2,2,0,0,0-1.29,1,2.42,2.42,0,0,0-.21.39Zm7.05,0,.25-.09.06.08h.35l-.25-.34-.15,0-.67.24a.15.15,0,0,0-.1.14Zm1.7,0-.21-.25a3.81,3.81,0,0,1-.76-1.28h0a3.1,3.1,0,0,1-.17-1,1.87,1.87,0,0,0,1.31-.87l.82.16h.06l.71-.16a1.72,1.72,0,0,0,.56.58,1.78,1.78,0,0,0,.75.29,3.1,3.1,0,0,1-.17,1h0a3.75,3.75,0,0,1-.76,1.28l-.19.25H564L564,279a4.06,4.06,0,0,0,.81-1.36,3.32,3.32,0,0,0,.19-1.16v0a.13.13,0,0,0-.13-.13,1.63,1.63,0,0,1-1.27-.84l-.15-.06-.78.17-.89-.17-.15.06a1.63,1.63,0,0,1-1.27.84.13.13,0,0,0-.13.13v0a3.32,3.32,0,0,0,.19,1.16,3.8,3.8,0,0,0,.8,1.36l.06.08Zm3.4,0,.07-.09.25.09h.5a.14.14,0,0,0-.09-.15l-.67-.24-.16,0-.24.34Zm-3.9-6h0m14.35,3.63a3.67,3.67,0,0,1-.36,1.52,2,2,0,0,1-.37.54l-.06.06-.22-1.55,0,0a1.08,1.08,0,0,0-.19-.17.5.5,0,0,0-.29-.1,1.46,1.46,0,0,0-.34,0,2,2,0,0,0,.12-.39h0a1.43,1.43,0,0,0,0-.4v-.15l.27-.18h0l0,0a.57.57,0,0,1,.28-.12h0a.4.4,0,0,1,.27.11.58.58,0,0,1,.11.25v.15l-.11.24,0,.07.49.84Zm-9.22-6.31a6,6,0,0,1-.41.58h0v0h0l-.34.3a2.64,2.64,0,0,0-1.3,1.48v0h-2.85s0,0,0-.07v0h0l0-.08a2.71,2.71,0,0,0-.65-1,6.67,6.67,0,0,0-.86-.93,4,4,0,0,1-.36-.52,4.16,4.16,0,0,1-.67-1.41h.71a3.6,3.6,0,0,0,.75,1.79,4.36,4.36,0,0,0,2.41,1.5h.08a4.34,4.34,0,0,0,2.42-1.5,3.52,3.52,0,0,0,.76-1.79h.65a3.89,3.89,0,0,1-.65,1.42c-.13.22-.21.32-.35.52a4.32,4.32,0,0,0-1,1.13,2.51,2.51,0,0,0-.5.89s0,.05,0,.08h.18v0a2.54,2.54,0,0,1,1.3-1.48l.33-.3h0v0h0a6,6,0,0,0,.41-.58Zm-5.09,2.4h0v0h0v0m-1.42-4h5.85a3.13,3.13,0,0,1-.69,1.61,2.49,2.49,0,0,1-4.47,0h0a3.21,3.21,0,0,1-.69-1.61m7.17,0v0l-.07.25a5.65,5.65,0,0,1-.59,1.32h0a5.84,5.84,0,0,0,.59-1.32,2.33,2.33,0,0,1,.07-.25v0a.06.06,0,0,0,0,0h0a.06.06,0,0,1,0,0m-6.57-2.57a2.43,2.43,0,0,1,1.64-.65h.14v-2H561v-.75h1.17v-1.17h1.08v1.17h1.17v.75h-1.17v2h.13a2.32,2.32,0,0,1,1.68.65,2,2,0,0,1,.6,1.21h-5.91a1.94,1.94,0,0,1,.64-1.18m-2.18,1.47h8.95v.79h-8.95Zm.5,1.06h0a5.12,5.12,0,0,0,.65,1.49,4.05,4.05,0,0,0,.35.53l0,0h0a6.28,6.28,0,0,1,.52.48,5,5,0,0,1,.56.77,3.35,3.35,0,0,1,.2.35v0a3,3,0,0,0-.19-.33,4.4,4.4,0,0,0-.57-.77,4.82,4.82,0,0,0-.51-.48h0l0,0a5.45,5.45,0,0,1-.36-.53,5.09,5.09,0,0,1-.64-1.49m2.4,4.31h0L561,273Zm-11.3,4,3.82-4.08,1.89,1.73-.91,1-.41-.38-.09-.1-1.26,1.35.5.46-.41.44-.91-.86-.11-.1-1.9,2.05c-.1-.42-.21-.86-.3-1.26l0-.14a.22.22,0,0,0,.13-.08m7.22,1.61a.13.13,0,0,0,.17.05l.72-.3.08-.12a.5.5,0,0,1,.17-.37.75.75,0,0,1,.54-.17.44.44,0,0,1,.3.14.8.8,0,0,1,.2.29l.08.09h.11l.54-.25a.14.14,0,0,0,.07-.18,2.87,2.87,0,0,1-.17-.57,2.81,2.81,0,0,1-.06-.56v-.1l-.08-.13a1.74,1.74,0,0,1-.49-.3,2.34,2.34,0,0,1-.49-.45l-.19,0,0,.19a2.78,2.78,0,0,0,.53.5h0a2.39,2.39,0,0,0,.47.29v0a3.31,3.31,0,0,0,.06.61,3,3,0,0,0,.15.5l-.3.13a1.21,1.21,0,0,0-.2-.26.75.75,0,0,0-.5-.22,1.08,1.08,0,0,0-.73.24.72.72,0,0,0-.24.48l-.53.22a5.38,5.38,0,0,0-.39-.59,3.69,3.69,0,0,0-.8-.78l2-2.21v-.17a1.69,1.69,0,0,1-.25-.46,1.55,1.55,0,0,1-.18-.49h0v-.13a1,1,0,0,1,.09-.38.85.85,0,0,1,.34-.45,1,1,0,0,1,.67-.21h0a1.41,1.41,0,0,1,.56.08.46.46,0,0,1,.31.31.52.52,0,0,1,.05.24.67.67,0,0,1-.12.35h0l-.36.47h0a.8.8,0,0,0-.21.5v.07a.83.83,0,0,0,.18.5,1,1,0,0,0,.44.38,1,1,0,0,0,.48.1h.07a1.11,1.11,0,0,0,.4-.06,1,1,0,0,0,.48-.36.91.91,0,0,0,.21-.57h3a.9.9,0,0,0,.2.57,1.11,1.11,0,0,0,.48.36,1.16,1.16,0,0,0,.39.06h.09a1,1,0,0,0,.47-.1.94.94,0,0,0,.45-.38.82.82,0,0,0,.17-.5v-.07a.75.75,0,0,0-.21-.5h0l-.36-.47a.59.59,0,0,1-.12-.35.67.67,0,0,1,0-.24.49.49,0,0,1,.32-.31,1.38,1.38,0,0,1,.56-.08h0a.92.92,0,0,1,.66.21.87.87,0,0,1,.35.45,1,1,0,0,1,.08.39v.12h0a1.51,1.51,0,0,1-.17.49,2,2,0,0,1-.25.46v.17l2,2.21a3.52,3.52,0,0,0-.81.78c-.14.19-.3.45-.39.59l-.52-.22a.73.73,0,0,0-.25-.48,1.07,1.07,0,0,0-.73-.24.7.7,0,0,0-.49.22,1,1,0,0,0-.2.26l-.3-.13a3.29,3.29,0,0,0,.14-.5,3.36,3.36,0,0,0,.07-.61v0a2.34,2.34,0,0,0,.46-.29,2.73,2.73,0,0,0,.52-.5v-.19l-.2,0a3,3,0,0,1-1,.75l-.08.13v.1a3.17,3.17,0,0,1-.23,1.13.14.14,0,0,0,.07.18l.54.25h.11l.07-.09a1,1,0,0,1,.2-.29.48.48,0,0,1,.3-.14.76.76,0,0,1,.55.17.46.46,0,0,1,.16.37l.08.12.73.3a.14.14,0,0,0,.17-.05l.14-.25a4.21,4.21,0,0,1,.28-.41,2.79,2.79,0,0,1,.87-.81l.06-.1,0-.12-2-2.24a2.27,2.27,0,0,0,.22-.41,1.71,1.71,0,0,0,.2-.59v-.14a1.16,1.16,0,0,0-.11-.5,1.18,1.18,0,0,0-.43-.56,1.26,1.26,0,0,0-.83-.27h0a1.79,1.79,0,0,0-.66.1.76.76,0,0,0-.47.47.86.86,0,0,0-.07.34,1,1,0,0,0,.17.51h0l.36.48h0a.46.46,0,0,1,.15.34v.05a.61.61,0,0,1-.13.35h0a.69.69,0,0,1-.33.28h0a.67.67,0,0,1-.37.08h-.08a.83.83,0,0,1-.29-.06h0a.6.6,0,0,1-.36-.26h0a.66.66,0,0,1-.15-.45v-.09l0-.1-.1,0H561l-.1,0,0,.1v.08a.68.68,0,0,1-.16.46h0a.61.61,0,0,1-.35.26.85.85,0,0,1-.31.06H560a.65.65,0,0,1-.37-.08h0a.65.65,0,0,1-.33-.28.71.71,0,0,1-.14-.35v-.05a.46.46,0,0,1,.15-.34h0l.36-.48h0a.84.84,0,0,0,.18-.51,1.09,1.09,0,0,0-.07-.34.81.81,0,0,0-.47-.47,1.86,1.86,0,0,0-.66-.1h0a1.26,1.26,0,0,0-.83.27,1.2,1.2,0,0,0-.44.56,1.28,1.28,0,0,0-.11.49v.15a1.71,1.71,0,0,0,.19.59,2.27,2.27,0,0,0,.22.41l-2,2.24,0,.12.06.1a2.76,2.76,0,0,1,.86.81h0c.08.11.19.28.27.41s.15.25.15.25m14.9-5.11-.24.21h.44Z" transform="translate(-195.25 -261.05)"/></g></svg>